<svg xml:space="preserve" style="max-height: 500px" viewBox="138.24 125.952 649.216 241.664" y="0px" x="0px" xmlns:xlink="http://www.w3.org/1999/xlink" xmlns="http://www.w3.org/2000/svg" id="Layer_1" version="1.1" width="649.216" height="241.664">
<g>
	<path d="M225.9,144.8c0.5-0.2,1.6-0.6,2.1-0.8c1.3,4.7,1.5,9.7,0.4,14.4c-0.5-3.4-0.6-6.9-0.5-10.3L227,148&#xA;&#9;&#9;c-0.3,5.7,0.5,11.3,0.9,16.9c-1.7-2.4-2.2-5.3-2.4-8.2C225.6,152.8,226.1,148.8,225.9,144.8z"/>
</g>
<g>
	<path d="M228,144c1.3,0,2.7,0,4,0c0.2,1.8-0.5,3.9,0.9,5.3c0.2,0.3,0.7,0.9,0.9,1.3c-0.1,0.1-0.4,0.4-0.5,0.5&#xA;&#9;&#9;c-0.8,0.7-1.6,1.4-2.3,2.1c-0.1-2.4-0.2-4.8-0.4-7.3c-1.1,4.2,0.8,8.6-0.7,12.8c-0.7,2.6-1.1,5.3-1.8,8c-0.3,0.8-0.9,2.3-1.2,3&#xA;&#9;&#9;c-0.5,0.1-1.5,0.2-2,0.3c0,2.6,0.1,5.1,0,7.7c-3.7-1.2-2.7-5.3-3.5-8.2c-0.8-3.1-2.1-6.2-2.5-9.4c1.7-0.6,1.8-3.3,0-3.8&#xA;&#9;&#9;c0-0.7,0-2.2,0-2.9c0.8,0.4,1.7,0.8,2.5,1.2l-0.1,0.4c-1.1,2.5,1.3,4.8,1.4,7.3c0.3,4.5-0.2,9,0.3,13.5c2.1-3.3,0.7-7.4,0.9-11&#xA;&#9;&#9;c0.9-2.5,1-5.1,1.3-7.7c0.2,2.9,0.8,5.8,2.4,8.2c-0.4-5.6-1.2-11.3-0.9-16.9l0.8,0.1c0,3.4,0,6.9,0.5,10.3&#xA;&#9;&#9;C229.4,153.7,229.3,148.7,228,144z"/>
	<path d="M219.8,178.3c0.5-0.5,1.4-1.6,1.8-2.1c0.9,2.3,1.3,4.7,1.7,7.1c0.6-0.8,1.1-1.6,1.6-2.4c0.9,1.2,1.8,2.3,2.8,3.3&#xA;&#9;&#9;c0.1,0.2,0.3,0.6,0.4,0.8l-0.2,0.6c-0.4,1.1-0.8,2.2-1.2,3.3c-0.5,0-1.5-0.1-2-0.1c1.3-1.9,1.7-4-0.4-5.5c-0.3,1.3-0.6,2.6-0.8,3.9&#xA;&#9;&#9;c-0.2-0.8-0.6-2.4-0.8-3.1c-0.5-0.3-1.5-0.9-2.1-1.2c0.4-0.5,1.1-1.5,1.4-1.9c-0.4-0.2-1.3-0.6-1.7-0.8&#xA;&#9;&#9;C220.2,179.8,219.9,178.8,219.8,178.3z"/>
	<path d="M280.3,211"/>
	<path d="M260,263.2c0.6,0.2,1.7,0.7,2.3,0.9C262.5,267.2,259.5,265.2,260,263.2z"/>
	<path d="M248,295c1.6-1.8,2.5-4.2,3.5-6.3c0.3,1.2,0.7,2.3,1,3.5c0.4-0.7,1.2-2,1.6-2.7c0.2,0.7,0.6,2.2,0.8,2.9&#xA;&#9;&#9;c-0.3,0.3-0.8,1-1,1.4c-0.8,1.7-0.9,3.6-1.1,5.5c-0.2-0.3-0.5-0.9-0.7-1.2c-0.1-1.8-0.1-3.5-0.2-5.2c-0.6,1.3-1.1,2.5-1.6,3.8&#xA;&#9;&#9;C249.6,296.1,248.5,295.4,248,295z"/>
</g>
<g>
	<path d="M232.9,149.3c0.3-2,0.4-4.6,2.3-5.8c-0.2,2.4-0.7,4.8-1.4,7.1C233.5,150.2,233.1,149.6,232.9,149.3z"/>
	<path d="M252.4,163.4c0.7-0.4,2.1-1.3,2.8-1.7c-1,2.9-2.3,5.7-4.1,8.1c0.2-1.8,0.5-3.7,0.8-5.5C252,164.1,252.3,163.6,252.4,163.4z"/>
</g>
<g>
	<path d="M237.6,144.4c0.6-0.1,1.8-0.2,2.4-0.3c-0.7,2.8-1.5,5.7-0.8,8.5c0.2,0.5,0.6,1.5,0.8,2c-1.7,3.6-2.5,7.6-2.6,11.6&#xA;&#9;&#9;c2.4-2.6,3.2-6.2,4.8-9.2c1.6-2.9,2-6.1,2-9.3c0.2,0.4,0.7,1.1,0.9,1.5c0.7-0.8,1.4-1.5,2.2-2.3c-1.8,5.2-4,10.3-4.3,15.8l2-0.3&#xA;&#9;&#9;c0,3.4-3.7,6.5-1.7,9.8c1.8-3.3,3.1-6.9,3.5-10.7l-1.9,0.2c1.7-2.7,2.2-5.9,3.6-8.8c-0.2-0.5-0.4-1.5-0.6-2c0.5-1.7,1-3.4,1.5-5.1&#xA;&#9;&#9;c0.5,0.8,0.9,1.6,1.4,2.4c0-0.6-0.1-1.8-0.2-2.4l1.6,0.1c-1.7,4.5-2.8,9.2-3.9,13.9c4.2-3.7,4.2-9.8,7.5-14&#xA;&#9;&#9;c-0.8,5.1-3.1,9.8-5.8,14.1c-2,4.2-3.8,8.5-5.6,12.8c2.7-1.4,3.2-5,5.1-7.3c3.9-5.6,6.2-12,8.9-18.2c0.8,0.3,1.7,0.5,2.5,0.8&#xA;&#9;&#9;c0,2.7,0.1,5.3,0.2,8c-1-2.3-2-4.5-3-6.8c-0.1,0.7-0.3,2-0.3,2.7c-1.7,3.9-3.4,7.7-5.5,11.4c-0.1,0.2-0.4,0.7-0.6,0.9&#xA;&#9;&#9;c-3.5,5.2-7.1,10.6-9.1,16.6c-0.6,2-0.9,4.1-1.1,6.2c1.4-1,2-2.4,1.9-4.2c0.5,0.8,1.1,1.5,1.6,2.3c-0.5,1.2-1.1,2.4-1.6,3.7&#xA;&#9;&#9;c-1.7-0.2-3.4-0.3-5.1-0.4c-0.2-3.6-0.3-7.2-0.1-10.8c0.4,1.1,0.8,2.1,1.3,3.2c0.5-0.8,1.1-1.5,1.3-2.4c0.8-2.1,0.8-4.3,1.1-6.4&#xA;&#9;&#9;c-0.9,1.2-1.7,2.4-2.6,3.7c1.2-4.8,3.7-9.5,2.7-14.6l-0.6,0.2c-2,4.3-3.6,9-4.3,13.8c-0.2,4.4-0.2,8.8-0.1,13.2c-1.6,0-3.3,0-4.9,0&#xA;&#9;&#9;c-0.5-6.5,1.1-13.4-1.3-19.7c0.3-0.3,1.1-0.8,1.4-1.1c0.1-2.6,0.1-5.2-0.4-7.8c0.7-0.1,2.2-0.2,2.9-0.3c-2.3,4.5,0,9,0.5,13.5&#xA;&#9;&#9;c-0.6-0.4-1.7-1.2-2.2-1.6c0.4,0.4,1.3,1.2,1.7,1.6c0.8,4,0.3,8.2,1,12.2c0.2-5.8,0.9-11.6-0.4-17.3c0.4-5.8,3.9-11.8,1.7-17.6&#xA;&#9;&#9;C237.2,148.3,237.5,146.3,237.6,144.4z"/>
	<path d="M221.3,144.6c2.5,2.5,0.6,6.7,0.3,9.8c-0.9-0.4-1.7-0.8-2.5-1.2c0,0.7,0,2.2,0,2.9c-0.2,1.3-0.2,2.6,0,3.8&#xA;&#9;&#9;c0.4,3.3,1.6,6.3,2.5,9.4c0.8,3-0.2,7,3.5,8.2c1.2,2.1,2.5,4.2,2.8,6.7c-1-1.1-1.9-2.2-2.8-3.3c-0.5,0.8-1.1,1.6-1.6,2.4&#xA;&#9;&#9;c-0.3-2.4-0.8-4.8-1.7-7.1c-0.4-1.1-0.8-2.2-1.2-3.3c-0.7-3.2-1.1-6.4-2.2-9.5c0.1,3.6,0.5,7.3,0.8,10.9c-2.4-1.6-1.8-4.9-2-7.3&#xA;&#9;&#9;c-0.4-4.7,1.8-9.4,0.5-14.1c-0.4-2.4-0.6-4.9-0.9-7.3l1.7,0c0.4,2.5,0.8,5.2,2.6,7.3C221.4,150.1,221.4,147.4,221.3,144.6z"/>
	<path d="M229.9,158.6c1.5-4.2-0.4-8.6,0.7-12.8c0.2,2.4,0.3,4.8,0.4,7.3c0.8-0.7,1.5-1.4,2.3-2.1c-0.8,2.6-1.7,5.2-1.3,7.9&#xA;&#9;&#9;c-2.5,1.5-2,4.7-0.6,6.8c-0.4,0.6-0.9,1.3-1.4,1.9l-0.6-1.6c0.2,0.9,0.5,2.8,0.6,3.7l-2-0.1c0-0.8,0.1-2.3,0.1-3.1&#xA;&#9;&#9;C228.7,164,229.1,161.3,229.9,158.6z"/>
	<path d="M178.5,165.6c0.7-0.9,1.4-1.7,2.1-2.6c0.8,1.2,1.6,2.4,2.4,3.6c-0.5,0-1.5,0.1-1.9,0.1c2.2,2.6,3.5,5.8,5.5,8.6&#xA;&#9;&#9;c-0.5-0.1-1.5-0.2-2-0.3c-0.6-1.2-1.3-2.3-2-3.4C181.3,169.6,179.9,167.6,178.5,165.6z"/>
	<path d="M260.5,163.5c0.9,0.1,1.9,0.2,2.8,0.3c-1.2,2.9-2.6,5.8-3.5,8.8c-0.6-1-1.1-2-1.6-3c-2.3,6.7-7.4,11.8-10.6,18&#xA;&#9;&#9;c-0.2,0.5-0.7,1.4-0.9,1.9c-1.6,0.7-2.3-0.9-1.3-2c3.7-6.2,8.1-12,11.1-18.6c0.7-1.4,0.3-2.9-0.2-4.3c0.1-0.2,0.2-0.5,0.3-0.7&#xA;&#9;&#9;c0.9,0.6,1.9,1.2,2.8,1.8c0.3,0.8,0.7,1.6,1,2.4C260.5,166.7,260.5,165.1,260.5,163.5z"/>
	<path d="M229.5,170.9c1.8,5.6,1.6,11.6,1.5,17.4c-2,0.6-3.5-0.5-3-2.6l0.2-0.6c0.9-2.5-0.2-5.2-0.1-7.8c0.2-0.6,0.6-1.9,0.9-2.5&#xA;&#9;&#9;c0.1-0.7,0.2-2.2,0.2-3L229.5,170.9z"/>
	<path d="M164,193.9c-0.2-1.1-0.3-2.3-0.4-3.4c0.8,0.6,2.3,1.7,3.1,2.3l0.1,0.2c0.1,0.1,0.3,0.4,0.4,0.6c0.3-0.3,0.8-0.8,1.1-1.1&#xA;&#9;&#9;c1.1,1.4,3.1,2.8,2.4,4.9c-0.5,0-1.5,0.1-2,0.1c-0.5-0.6-0.9-1.1-1.3-1.7C166.6,194.6,165.4,193.7,164,193.9z"/>
	<path d="M266.6,203.9c1.2-1.4,2.7-2.5,4.3-3.4l-0.6,1.9c-0.1,0.2-0.4,0.7-0.5,0.9l-0.1,0.3C268.9,203.6,267.3,203.8,266.6,203.9z"/>
	<path d="M288.6,227.9c5.3-2,10.8-3.4,16.2-5.2c-0.8,1-1.6,2-2.4,3.1c-2.5,0.9-4.9,1.8-7.6,1.9c0.8,0.2,1.6,0.4,2.4,0.5&#xA;&#9;&#9;c4.6-1.1,9.3-1.1,14-1.6c-6.9,4-15.5,3.6-23.2,2.3C288.2,228.7,288.5,228.1,288.6,227.9z"/>
	<path d="M272.8,244.1c1-1.5,2.5-2.5,4.2-3.1l0.4,1.8c1.7,0.3,3.4,0.6,5.1,0.8c1,0.2,3.1,0.5,4.1,0.6c-1.5,0.4-3.1,0.8-4.6,1.1&#xA;&#9;&#9;c8,1.5,16.2,2.7,24.4,2.5c1,0,3,0.1,4,0.2l0.7,1.2c-5.4-0.8-10.9-0.4-16.3,0.1c4.1,0,8,1.4,12.1,1.2c-0.1,0.6-0.3,1.8-0.4,2.4&#xA;&#9;&#9;c-4.1-1.3-8.4-1.6-12.7-1.8c4.6,1.2,9.4,3.9,14.1,1.8c2.6,0.8,5.3,1.8,8.1,1.2c-0.1,0.6-0.2,1.7-0.3,2.3c-1.2-0.1-3.5-0.4-4.7-0.5&#xA;&#9;&#9;c1.4,1,2.8,2.1,4.2,3.1c-1.7-0.3-3.4-0.8-5-1.4c0.1-0.7,0.3-1.5,0.5-2.2c-2.9-0.4-5.9-0.3-8.7,0.4c-4.6-1.3-9.2-2.7-13.5-4.7&#xA;&#9;&#9;c0-0.3,0.1-0.8,0.1-1c-0.9,0.5-1.8,1.1-2.6,1.6c-0.6,0.1-1.9,0.1-2.5,0.2c0.2-0.4,0.5-1.3,0.7-1.7c1.1-0.3,2.1-0.7,3.2-1&#xA;&#9;&#9;c-2.6-0.4-5.2-0.9-7.8-1.3c-1.8-0.7-4.5-0.1-4.1,2.3c-1.5-0.2-3-0.4-4.4-0.7c0.3-1.8,1-3.4,1.8-5.1c2.7,0.1,5.3,0.1,8,0.2l-0.1-0.7&#xA;&#9;&#9;C278.1,244.1,275.5,244.2,272.8,244.1z"/>
</g>
<g>
	<path d="M242.1,144.2c2.1,0.4,4.5,0.1,6.2,1.6c-0.3,0.3-0.8,0.9-1.1,1.2c-0.7,0.8-1.5,1.5-2.2,2.3c-0.2-0.4-0.7-1.1-0.9-1.5&#xA;&#9;&#9;c-0.1-0.7-0.4-2.1-0.5-2.7c-1.5,3.1-2.4,6.4-3.7,9.6c-0.2-0.5-0.6-1.5-0.8-2C240.2,149.8,241.1,147,242.1,144.2z"/>
	<path d="M291.5,220.1c1.2-0.9,1.9-0.7,2.2,0.6C292.5,221.7,291.7,221.5,291.5,220.1z"/>
	<path d="M258.9,282.2c1.1,0.3,1.8,1,2.1,2.1c-0.6,0.8-1.5,1.2-2.5,1.3C257.5,284.6,258.2,283.2,258.9,282.2z"/>
</g>
<g>
	<path d="M224,144.5l1.3,0c0,2.7,0.2,5.5-0.3,8.2l-1.3,0.6C224,150.3,224.1,147.4,224,144.5z"/>
	<path d="M314.2,230.1c1-0.2,2.1-0.1,3.1,0.2l0,0.6c-0.3,0.3-1.1,0.9-1.4,1.2C314.4,233.1,311.7,231,314.2,230.1z"/>
	<g>
		<path d="M291.4,253.7c3.1,1,6.3,1.8,9.5,2.6c-1.6,2.3-4.5,2.6-7.1,3.1c3.7,2.1,7.9,3.1,11.8,4.9l0.6,1.2c-2.1-0.5-4.2-1.9-6.4-1.5&#xA;&#9;&#9;&#9;l-0.3-0.7c-0.5,0-1.4,0-1.8,0c-0.5-3.6-2.9,1,0,0c0.5,0.2,1.6,0.5,2.1,0.7c2.7,2.9,6.7,4.2,9.3,7.3l-2.1,0.3&#xA;&#9;&#9;&#9;c0.5,0.1,1.5,0.1,2,0.2c-0.3,0.6-0.9,1.9-1.2,2.5c-2.7-1.9-4.8-4.9-8.1-5.7c-0.1-0.2-0.3-0.6-0.4-0.8l-0.1-0.6l-0.1-0.7l-0.2-1.1&#xA;&#9;&#9;&#9;c-1.9-1.1-3.9-1.8-6-2.5l0.6-0.4c0.4-0.2,1.3-0.7,1.8-0.9c-3.6-1.9-7.5-3.3-11.3-5l1.1-0.3c0.8,0.1,1.6,0.3,2.4,0.5&#xA;&#9;&#9;&#9;c3.1,1.1,6.4,1.6,9.7,1.4c-2.4-1-4.8-1.8-7.4-2.4C290,255.1,290.9,254.2,291.4,253.7z M301.2,267.2"/>
	</g>
	<path d="M297.3,259.6c1.5-1,3.1-2,4.6-2.9c1.3,0.7,2.6,1.4,3.9,2.1l-2,0.8c0.8-0.1,2.4-0.4,3.2-0.5l-0.6,2.4c0.3-0.5,0.9-1.5,1.1-2&#xA;&#9;&#9;c1.9,1.3,5.3,1,6.2,3.3c-1.7-0.5-3.4-1-5-1.5c0.7,1.7,2.5,2.3,3.9,3.2c-0.2,0.4-0.6,1.3-0.8,1.7c-1.8-0.6-3.6-1.3-5.3-1.9&#xA;&#9;&#9;C304,261.7,300.7,260.2,297.3,259.6z"/>
	<path d="M250.5,266.6c0.4,0.4,1.2,1.1,1.6,1.4c1.6,6.4,1.8,13.1,2.8,19.6c-2.9-2.9-1.6-7.3-2.4-10.9&#xA;&#9;&#9;C251.9,273.3,250.9,270,250.5,266.6z"/>
	<path d="M287.2,283.3l0.5-0.2l0.7-0.1c2,2.5,5.7,4.7,5.6,8.2C292,288.3,289.3,286,287.2,283.3z"/>
</g>
<g>
	<g>
		<path d="M209.5,147c1.4,0.8,1.5,2.5,1.8,3.9c1.2,6.3,1.7,12.7,1.9,19.2c0.1,1.6,0.6,3.2,1.1,4.8c0.2-0.5,0.5-1.4,0.7-1.8&#xA;&#9;&#9;&#9;c0.5-8.9,0.1-18-2.6-26.6l1.9,0.2c0.6,2.9,1,5.8,2,8.5c0.3,1.2,0.4,2.4,0.2,3.6c-1,5.5-0.6,11.1-0.2,16.6c1.2,1.9,2.3,4.1,0.5,6.1&#xA;&#9;&#9;&#9;c1,1.4,2.1,2.7,3.2,4c-0.2-0.8-0.5-2.3-0.7-3.1c0.4-0.7,0.7-1.4,1.1-2.1c0.4,0.2,1.3,0.6,1.7,0.8c-0.4,0.5-1.1,1.5-1.4,1.9&#xA;&#9;&#9;&#9;c0.5,0.3,1.5,0.9,2.1,1.2c0.2,0.8,0.6,2.4,0.8,3.1c0.3-1.3,0.6-2.6,0.8-3.9c2.2,1.5,1.7,3.6,0.4,5.5l-0.2,0.5c-1,0.1-2,0.2-3,0.4&#xA;&#9;&#9;&#9;c-0.4-0.6-1.1-1.7-1.5-2.2c0.2,0.7,0.6,2.1,0.8,2.8c-2.6,0.7-5.2,1.7-7.3,3.5c-1.1-1.9-2.2-3.9-3.4-5.8c0.8,2.2,1.7,4.4,2.4,6.6&#xA;&#9;&#9;&#9;c-0.6-0.6-1.8-1.7-2.4-2.3c0,1,0.1,3.2,0.2,4.2c-2-0.4-2.7-2.3-3.6-3.8c0.2-0.5,0.6-1.6,0.9-2.2c-0.5-1.3-0.9-2.5-1.4-3.8&#xA;&#9;&#9;&#9;c0.3,1.1,0.5,2.1,0.8,3.2c-0.9,2.5,0.3,4.8,1.5,6.9c-1.7,1.5-3.4,3-4.9,4.7c-0.4-0.1-1.1-0.4-1.4-0.5c-0.2,1.3-0.6,2.5-1.2,3.7&#xA;&#9;&#9;&#9;c-0.9-0.7-1.8-1.4-2.6-2.2c0.1-0.5,0.4-1.5,0.6-2c0.7,0.9,1.4,1.8,2.1,2.7c-0.3-1.1-0.6-2.2-0.9-3.3c-1.2-1.1-2.4-2.2-3.6-3.4&#xA;&#9;&#9;&#9;c-0.2-1.1-0.4-2.1-1.1-3l0.2-0.5c0.1-0.3,0.3-1,0.4-1.3c-1.4-0.5-2.8-1-4.2-1.5c0.9-0.2,2.7-0.7,3.6-0.9c-1.9-0.8-3.8-0.4-5.7,0.2&#xA;&#9;&#9;&#9;c-1.1-0.2-2.3-0.4-3.4-0.5c-1,0-2,0.2-3,0.6c-1-1.8-2.2-3.3-3.8-4.6c-0.1-0.3-0.1-0.9-0.2-1.1c-0.1-0.4-0.3-1.1-0.4-1.4&#xA;&#9;&#9;&#9;c-0.4,0.2-1.2,0.5-1.6,0.6c-0.4,0.1-1.2,0.3-1.6,0.4c-0.2-0.5-0.6-1.5-0.9-2.1c-0.1-2.7-1.1-5.3-3.4-7c0-0.5-0.1-1.4-0.1-1.9&#xA;&#9;&#9;&#9;l0-1.7c2.7,2.4,3.9,5.8,6.3,8.4c0.5,0,1.5,0.1,2,0.1c1.4,3.1,2.6,7.1,6.4,8.1c-1-2.3-2.4-4.4-3.3-6.8c0.2-0.7,0.7-2.2,0.9-2.9&#xA;&#9;&#9;&#9;c0.2,0.8,0.3,1.5,0.5,2.3c0.5,3,2.2,5.5,3.7,8c1.3-0.1,2.6-0.1,3.9-0.2l0.1-0.7c0.1-0.7,0.4-2,0.6-2.7c0.2,0.1,0.6,0.4,0.8,0.6&#xA;&#9;&#9;&#9;c1.5,2.7,4.2,6.9,7.8,4.8c-0.8-1.1-1.6-2.1-2.5-3.1c-0.3-0.3-0.8-0.9-1.1-1.2c0.1-0.6,0.2-1.7,0.3-2.2c2.1,2.2,4,4.4,6.2,6.5&#xA;&#9;&#9;&#9;c-1.6-4.1-4-8.1-7.6-10.7c-1.9-0.6-0.7,2.3-1.1,3.4c-1.6-1.7-3.4-3.2-5.3-4.6c-0.1-0.4-0.1-1.3-0.2-1.7l0.2-0.3&#xA;&#9;&#9;&#9;c1.1,1.1,2.3,2.1,3.7,2.9c-0.6-1.9-2-3.3-3.5-4.5c2.2-0.4,0.8-2.3,0.6-3.4c-1.3-4.3-5.5-7.4-6-12.1c1.1,1.2,1.7,3.3,3.5,3.6&#xA;&#9;&#9;&#9;c0.4,0.3,1.1,0.9,1.5,1.2c0.1,0.5,0.3,1.6,0.4,2.1c0.4-0.5,1.2-1.4,1.6-1.9c-1.4,3.3-0.1,6.6,2,9.2l-0.3,0.6&#xA;&#9;&#9;&#9;c-1.3,1.5,0.7,4.1,2.4,2.6c2.2-0.2,3.5,3.7,6.1,3.9c-0.6-0.7-1.7-2.1-2.3-2.8c0.7-0.7,1.5-1.5,2.2-2.2c-3.3-1.6-5.9-4.4-7.7-7.5&#xA;&#9;&#9;&#9;c-1.7-2.7-2.8-5.8-4-8.7c0.1,0.7,0.2,2,0.2,2.6l-2.5,0.7c0.2-1.1,0.4-3.4,0.6-4.5c2-1.9,4.6-2.7,7-4c1.7-1,3.7-2.1,5.7-0.8&#xA;&#9;&#9;&#9;c-0.5-1.6,0-2.6,1.3-2.9l0,2.2c0.7-0.3,1.3-0.6,2-1c0.1,1.4,0,2.9,1,4c-1.4-0.3-2.9-0.5-4.3-1c0.2,0.7,0.6,2.2,0.8,2.9l0.7-2.1&#xA;&#9;&#9;&#9;c1.8,2.2,1.8,5.3,3.3,7.7c0.1,1.2,0.2,2.5,0.2,3.7c0.8,0,2.4-0.1,3.3-0.1c0,2.1-0.9,3.1-2.7,3.1c0.5,4.1,1.6,8,4.1,11.4l-1.8-0.4&#xA;&#9;&#9;&#9;c1.6,3.2,3.4,6.4,5.4,9.4c-0.6-3-2-5.7-3.7-8.1c1.1-3.7-1.3-7.3-2.3-10.8c0.5-1.4,1.1-2.8,1.9-4c0.3,1.7,0.5,3.4,0.8,5.2&#xA;&#9;&#9;&#9;c0.1-2,0.5-4.3-1.1-5.9c0.1-0.8,0.3-2.4,0.3-3.2c-0.7,1.7-1.8,3.1-3.8,2.8c0-0.8,0-2.4,0-3.2c0.6,0,1.8-0.1,2.4-0.1l-0.5-2.3&#xA;&#9;&#9;&#9;c-0.7,0.4-2,1.1-2.6,1.5c-0.3-2.3-1.1-4.4-1.9-6.5c1.9,0,3.6,0.5,5.3,1.4c0.5,1.8-0.1,4.4,2,5.3C211.3,156.9,210.1,152,209.5,147z&#xA;&#9;&#9;&#9; M194.3,155.1c0.4,1.7,0.7,3.4,1.3,5.1c-0.7,0.1-2.2,0.3-2.9,0.5c0.5,0.5,1.6,1.6,2.1,2.1c-0.2,0.6-0.6,1.9-0.8,2.5&#xA;&#9;&#9;&#9;c0.5-0.6,1.6-1.7,2.2-2.3c-0.2,1.5-0.1,3,0.5,4.4c0.6,2.9,2.8,6.2,6.1,5.8c0.4,0.6,1.1,1.9,1.5,2.5c0.2-3.8-2.6-6.6-4.5-9.6&#xA;&#9;&#9;&#9;l2.3,0.3c-0.8-1.2-1.7-2.4-2.6-3.6c0.8-1,1.7-1.9,2.4-2.9c-0.2-2.4-0.9-5.2-3.2-6.3l0.2,1.4C197.5,153.6,195.6,154.7,194.3,155.1z&#xA;&#9;&#9;&#9; M192.3,156.9c0,0.5-0.1,1.6-0.1,2.2C194.1,161,194.4,154.9,192.3,156.9z M204.7,169.2c2-2.6-0.8-5.6-1.2-8.3&#xA;&#9;&#9;&#9;C202.2,163.7,203.3,166.6,204.7,169.2z M212.1,175.3 M214.2,175.7c-1.3,2.1-1.5,4.6,0.1,6.6C216.9,180.8,216.3,177.4,214.2,175.7z&#xA;&#9;&#9;&#9; M204.3,178.2 M206,178.2 M202.2,183.3 M214.9,183.9c0.8,2.4,2.2,4.6,4.1,6.2C218.5,187.6,217,185.4,214.9,183.9z M219.2,186.3&#xA;&#9;&#9;&#9; M203.1,191.3c-0.5,1.4,0.3,4,1.9,4.3C205.7,194.3,204.7,191.5,203.1,191.3z M197.7,191.6c1.2,1.9,2.7,3.6,4.2,5.2&#xA;&#9;&#9;&#9;C201.1,194.6,199.6,192.9,197.7,191.6z"/>
	</g>
	<path d="M176.1,170.5c0.5-0.9,1-1.8,1.4-2.8c1.6,1.2,2.7,4.8,5.1,3.8c-0.2,0.7-0.4,2.2-0.6,2.9c-0.7-1.3-1.8-2.4-3.2-2.9&#xA;&#9;&#9;c-0.1,0-0.2-0.1-0.3-0.1l0.3,0.1c0.1,0.4,0.1,1.3,0.2,1.7c-0.7-0.3-2.2-1-3-1.4c0.9,2.1,1.9,4.1,2.9,6.2c-3-1.7-3.6-5.7-5.6-8.4&#xA;&#9;&#9;c0.4-0.4,1.1-1.2,1.5-1.7L176.1,170.5z"/>
	<path d="M270.2,192.2l0.4,0.2c0.7,0.3,2,0.9,2.7,1.2c-1.6,1.6-3.2,3.2-4.9,4.7c0.7,0.6,1.4,1.1,2.1,1.7c-1.9,0.4-3.6,1.2-5.3,2.1&#xA;&#9;&#9;c-0.7-0.9-1.4-1.8-2.1-2.7C266.1,197.7,268.2,194.9,270.2,192.2z"/>
	<g>
		<path d="M246.8,269.1c1.1-0.4,2.3-0.8,3.5-1.2c-0.1,0.5-0.2,1.4-0.3,1.9c-0.5-0.2-1.4-0.5-1.9-0.7c0.9,2.5,1.5,5.2,1.3,7.9&#xA;&#9;&#9;&#9;c0.5-0.9,0.9-1.9,1.4-2.8c0.2,3.5,0.1,7,0.3,10.5c0.5,3.5,5.2,3.3,5.9,6.6c-0.5-0.5-1.6-1.4-2.1-1.8c0,0.7,0,2.2,0,2.9&#xA;&#9;&#9;&#9;c-0.2-0.7-0.6-2.2-0.8-2.9c-0.4,0.7-1.2,2-1.6,2.7c-0.3-1.2-0.7-2.3-1-3.5c-1,2.2-1.9,4.5-3.5,6.3c0.3,1.1,0.8,2.2,1.4,3.3&#xA;&#9;&#9;&#9;c-2.6,1.7-0.2,4.7,0.1,6.9c-0.6,1.2-1.1,2.5-1.4,3.8c0.3-0.7,1-2.2,1.3-2.9c0.8,2.2,1.6,4.4,2.2,6.6c-0.3,0-0.9,0.1-1.1,0.1&#xA;&#9;&#9;&#9;c-0.3-0.6-0.9-1.8-1.3-2.4c-0.1,1-0.5,2.9-0.6,3.8c-2.9-3.1,0.1-9.1-4-11.7c-0.8,2.2-0.3,4.4,0.6,6.5l-0.1,0.2&#xA;&#9;&#9;&#9;c-0.7,1.3-1.3,2.6-2,3.9c-0.1-4,0.2-8.1-1.2-12c-0.4,0.3-1.2,0.8-1.6,1.1c-0.3,0.2-0.9,0.5-1.1,0.7c0.3-0.9,0.6-1.9,1.1-2.8&#xA;&#9;&#9;&#9;c0.4-0.3,1.1-1,1.4-1.4c0.5,0.7,1.4,2.2,1.9,3c-0.3-4.7-0.8-9.3-1.4-13.9c0.5-2.7-0.1-5.4-0.4-8.1c-0.3-3.4,0.5-6.7,1.2-10&#xA;&#9;&#9;&#9;c0.4-0.1,1.2-0.3,1.6-0.4c1.2,3.3,3.1,6.6,2.1,10.2c-0.6-2.4-1.3-4.8-2.8-6.8c-1.1,2-0.9,4.3-0.9,6.5c0.5,0,1.5,0.1,2,0.2&#xA;&#9;&#9;&#9;c-1.2,6.2-1.2,12.8,1.3,18.7c0.6-6.1,0.8-12.3,0.3-18.4c2.9,3.3,0.6,8.4,2.1,12.4c0.2-3,0.1-6,0.2-9.1&#xA;&#9;&#9;&#9;C249.4,278.3,246.6,274,246.8,269.1z M245.3,299.3c-0.9,1.3-0.7,2,0.6,2.3C246.8,300.3,246.6,299.5,245.3,299.3z"/>
	</g>
</g>
<g>
	<g>
		<path d="M366.8,147c21.4,0,42.8,0,64.2,0c10.8-0.1,21.9-0.3,32,3.8c11.7,4.4,21,14.3,24.7,26.2c3.6,11.5,3.5,24.2-0.1,35.6&#xA;&#9;&#9;&#9;c-3.6,11.4-12.5,21-23.6,25.5c-7.3,3.1-15.2,4.3-23.1,4.3c-19.4,0.1-38.8,0-58.3,0c0,23.8-0.1,47.6,0,71.4&#xA;&#9;&#9;&#9;c-5.3,0.1-10.6,0.1-15.9,0.1C366.8,258.3,366.8,202.7,366.8,147z M382.7,160.6c0,22.8,0,45.6,0,68.4c18.4,0,36.8,0,55.3,0&#xA;&#9;&#9;&#9;c10.3,0,21.1-3,28.5-10.5c6.2-6.4,8.2-15.7,8-24.4c0-8.3-2.2-17.2-8.3-23.3c-7.4-7.4-18.1-10.3-28.2-10.3&#xA;&#9;&#9;&#9;C419.6,160.5,401.1,160.5,382.7,160.6z"/>
	</g>
	<path d="M550.4,147.1c5.3-0.3,10.7-0.1,16-0.1c0,55.7,0,111.3,0,167c-5.3-0.1-10.7,0.1-16-0.1C550.5,258.3,550.5,202.7,550.4,147.1&#xA;&#9;&#9;z"/>
	<g>
		<path d="M684.4,147.2c6.1-0.3,12.1-0.3,18.2,0c21.5,55.7,43.5,111.2,65.2,166.8c-5.7,0.1-11.4,0-17.1,0.1&#xA;&#9;&#9;&#9;c-6.8-17.3-13.6-34.5-20.2-51.8c-25.4-0.3-50.9-0.3-76.3,0c-6.3,17.3-13.4,34.3-19.7,51.6c-5.7,0.4-11.4,0.1-17,0.2&#xA;&#9;&#9;&#9;C639.8,258.3,662.4,202.9,684.4,147.2z M692.5,163.8c-11,28.3-22.1,56.5-33.1,84.7c21.8,0.1,43.6,0,65.5,0.1&#xA;&#9;&#9;&#9;c-9.9-27.1-20.4-54.1-30.4-81.1C694,166.1,693.5,164.8,692.5,163.8z"/>
	</g>
	<path d="M261,148.1c0.4,0.8,0.8,1.6,1.1,2.5c0,1.6,0,3.2,0,4.7c-0.2,1.6-0.2,3.3,1.4,4.2c0.4,0.4,1.2,1.1,1.6,1.4&#xA;&#9;&#9;c-0.4,0.7-1.1,2.2-1.4,2.9l-0.3,0c-1-0.1-1.9-0.2-2.8-0.3c-0.4-0.5-0.8-1-1.2-1.6c-0.3-0.4-0.8-1.3-1.1-1.8&#xA;&#9;&#9;c-0.3-0.5-0.9-1.4-1.2-1.8l-1.3,2.1c1-2.8,2.4-5.5,2.2-8.5c0.3,0.6,0.7,1.7,1,2.3c-0.2,0.6-0.6,1.7-0.8,2.3l-0.4,1&#xA;&#9;&#9;c0.4,0.3,1,0.8,1.4,1.1c0.6,1.3,1.1,3.5,3,3.3c0.3-0.2,1-0.5,1.3-0.7c-0.3-0.3-1-0.8-1.3-1c-0.3-1.4-0.6-2.8-0.9-4.1&#xA;&#9;&#9;C261.1,153.4,261.1,150.8,261,148.1z"/>
	<path d="M267.8,156.7c-1.1-2.1-0.2-4.3,1.1-6.1c0.1,0.7,0.2,2.2,0.3,2.9c0.5-0.4,1.5-1.3,2-1.8c-1,3-2.6,5.7-3.2,8.8&#xA;&#9;&#9;c-1-1.3-2-2.7-2.2-4.3L267.8,156.7z"/>
	<path d="M182.2,161.1l1.5,0.6c1.6,4,3.7,7.9,6.5,11.2l-2.3-0.3c0.6,1,1.3,2,1.9,3l0.2,0.8c0.1,0.4,0.1,1.3,0.2,1.7&#xA;&#9;&#9;c0.5,3.9,5.2,5.1,7.6,7.7c0.3,0.3,0.8,0.9,1.1,1.2c0.1,0.6,0.2,1.7,0.3,2.3c-1.7-1.5-3.6-2.9-5.6-4c-0.2-0.1-0.6-0.4-0.8-0.6&#xA;&#9;&#9;c-0.2,0.7-0.5,2-0.6,2.7c-3-1.9-5.4-4.5-7.7-7.1c-0.2-0.8-0.3-1.5-0.5-2.3c-0.1-0.6-0.4-1.7-0.5-2.3c2.5,3.7,4.3,8.1,8.4,10.3&#xA;&#9;&#9;c-0.7-3.8-3.7-6.3-6.3-8.7c0.5-0.6,0.9-1.1,1.4-1.7l0.6,1.8c0.4,0.2,1.2,0.7,1.6,0.9c-0.9-3.1-3.2-5.6-5.1-8.1&#xA;&#9;&#9;c0.5-0.2,1.5-0.5,2-0.7L184,170C186.1,166.9,182.7,164.1,182.2,161.1z"/>
	<path d="M280,173.3c3.9-2.6,5.4-8.1,9.7-9.9c-2,3.1-4.6,5.9-7.1,8.6c0.5,0.5,0.9,1,1.4,1.5c2-3,4.5-6.4,8.2-7.5&#xA;&#9;&#9;c-3.1,3.2-6.4,6.1-9.1,9.6c-1.1-1.4-2.9-2.6-4.8-1.9c1.2-1.7,1.8-4,3.8-5C281.5,169.8,280.5,172.1,280,173.3z"/>
	<path d="M226.4,171.6c0.7-0.6,2.8-2.2,3.1-0.8l-0.4,0.9c-0.5,0.3-1.6,1-2.2,1.3C226.8,172.7,226.5,172,226.4,171.6z"/>
	<path d="M299.3,178.1c1,0.3,3.1,0.7,4.2,1l-2.1,0.9c0.8,0.6,1.7,1.2,2.6,1.8c-1.3,0.9-2.5,1.8-3.8,2.7c0.2-0.5,0.6-1.4,0.7-1.9&#xA;&#9;&#9;c0-0.4,0-1.3,0-1.8c-1.2,1.1-2.1,2.5-2.9,3.9c-0.5,0.6-1.1,1.2-1.6,1.9l-1.8,0.4C296,183.9,300.5,181.9,299.3,178.1z"/>
	<path d="M289.3,212.7c1.6-0.3,3.2-0.6,4.8-0.9c-0.5,0.4-1.4,1.1-1.9,1.5c0,0.3,0.2,1,0.2,1.3c0.3,1-0.1,1.6-1.3,1.7&#xA;&#9;&#9;c0.2-0.7,0.6-2.1,0.7-2.8c-0.7,0.1-2,0.3-2.7,0.4C289.2,213.6,289.3,213,289.3,212.7z"/>
	<path d="M301.3,220.3c1.2-0.5,2.3-1,3.5-1.5c1.5,0.3,3.1,0.6,4.6,0.8C306.7,219.8,303.8,221.6,301.3,220.3z"/>
	<path d="M297.7,233.7c2.8-0.7,5.7-1.1,8.6-1c3.9,0.4,7.7,1.9,11.6,1.9l-0.1,0.1c-0.1,0.4-0.3,1.1-0.4,1.5c-0.1,0.9-0.2,1.8-0.4,2.8&#xA;&#9;&#9;c-2.7,0-5.4,0.1-8.1,0.1c0.2-0.5,0.6-1.6,0.8-2.1c0.4-0.1,1.2-0.4,1.5-0.5c1,0,3,0.1,4,0.2C310.4,232.9,303.5,233.4,297.7,233.7z"/>
	<path d="M280.5,235c0.2-0.4,0.5-1.1,0.7-1.5c0.9,0.4,1.7,0.8,2.5,1.3c-1.3-0.6-2.2-0.2-2.6,1.1c1.1,0.3,2.3,0.3,3.4,0.1l0.3,0.7&#xA;&#9;&#9;c-2.1,0.3-4.2,0.6-6.3,0.8c-1.5,0-3-0.4-3.9-1.6c1.7,0.2,3.4,0.5,5,0.9C279.9,236.4,280.3,235.4,280.5,235z"/>
	<path d="M318.8,237.3c2.1-1.1,0.3,3.6-0.3,0.7L318.8,237.3z"/>
	<path d="M171.6,240.5c2.2-1.4,4.6-2.9,7.4-2.4l-0.2,0.6c-1.6,0.9-3.5,1.3-5.3,1.6c-1.1-0.4-3.3,1-1.3,1.7c0.6-0.1,1.7-0.2,2.3-0.3&#xA;&#9;&#9;l0.2,1.2c-2.1-0.2-4.1-0.2-6.2,0l-0.9,0l0.8-1.1c0.4-0.1,1.2-0.2,1.6-0.3L171.6,240.5z"/>
	<path d="M286,251.9c0.9-0.5,1.7-1.1,2.6-1.6c0,0.2-0.1,0.7-0.1,1c-0.1,0.4-0.2,1.2-0.3,1.6c1.1,0.2,2.1,0.5,3.2,0.8&#xA;&#9;&#9;c-0.4,0.5-1.3,1.4-1.8,1.9c-0.6,0.2-1.7,0.7-2.3,0.9c-0.8-0.2-1.6-0.3-2.4-0.5c0.6-0.6,1.3-1.2,1.9-1.8l-0.6-1.7L286,251.9z"/>
	<path d="M171.9,279.5c0.3-0.3,0.7-0.8,1-1.1l0.6,0.5c-0.2,0.3-0.7,0.8-1,1.1L171.9,279.5z"/>
	<path d="M215.7,305.4c0.5-0.7,1.1-1.3,1.6-1.9c-0.6,3.1-0.6,6.3,0.4,9.3l0.1,0.3c-0.7-0.1-2-0.2-2.6-0.3&#xA;&#9;&#9;C215.1,310.4,217.1,307.4,215.7,305.4z"/>
	<path d="M748.4,331.5c0.6,0,1.7,0,2.3,0c0.1,3.5,0,7,0.1,10.5c4.7,0,9.4,0,14.1,0c0-3.5,0-7,0-10.5c0.5,0.1,1.6,0.2,2.2,0.3&#xA;&#9;&#9;c0.1,7.9,0.1,15.8,0,23.7c-0.5,0.1-1.6,0.2-2.2,0.3c0-3.9,0-7.7,0-11.6c-4.7,0-9.4,0-14.1,0c0,3.8,0,7.7,0,11.5c-0.6,0-1.7,0-2.3,0&#xA;&#9;&#9;C748.3,347.5,748.3,339.5,748.4,331.5z"/>
	<path d="M688.9,331.5c5.5-0.1,11-0.1,16.4,0l0,1.9c-4.7,0.1-9.4,0.1-14.1,0c0,2.8-0.1,5.6-0.1,8.5c4.3,0.1,8.7-0.1,13,0.1&#xA;&#9;&#9;c0,0.5,0,1.4,0,1.8c-4.4,0.2-8.7,0-13.1,0.1c0,3.2,0,6.3,0.1,9.5c4.8-0.1,9.5-0.1,14.3,0l0,1.9c-5.5,0-11.1,0-16.6,0&#xA;&#9;&#9;C688.9,347.5,688.9,339.5,688.9,331.5z"/>
	<path d="M149,342.8c1.3-0.1,2.7-0.2,4-0.3c156.7,0,313.3,0,470,0c1.7-0.1,4.4,0.1,3.1,2.6c-3,0.6-6.1,0.3-9.1,0.3&#xA;&#9;&#9;c-155,0-310,0-465,0C150.1,345.8,148.6,344.9,149,342.8z"/>
</g>
<g>
	<path d="M206.3,148.2c0.4,0.1,1.1,0.2,1.4,0.2l-0.3,0.6c-0.4,0.9-0.6,1.8-0.6,2.8c0.4,0.3,1.3,0.9,1.7,1.2c0.2,0.8,0.6,2.5,0.8,3.4&#xA;&#9;&#9;c-0.4-0.8-1.3-2.3-1.8-3.1l-1.8,0.7C205.9,152.1,206.1,150.1,206.3,148.2z"/>
	<path d="M222.7,156.4c0.4-0.8,1.2-2.3,1.5-3c-0.3,3.7-0.5,7.4-0.1,11.1c-0.2,3.7,1.2,7.7-0.9,11c-0.5-4.5,0-9-0.3-13.5&#xA;&#9;&#9;c-0.2-2.5-2.5-4.7-1.4-7.3C221.8,155.2,222.4,156,222.7,156.4z"/>
	<path d="M276.5,160.7c1.1-1.6,2.7-5.6,4.3-2.1c-0.4,0.4-0.8,0.8-1.2,1.3C278.9,160.1,277.3,160.5,276.5,160.7z"/>
	<path d="M293.8,177.6c1.5-1.8,3.3-3.5,5.1-5c-0.1,0.6-0.4,1.7-0.5,2.3c0.6,0.1,1.9,0.3,2.6,0.4c-2.8,1.3-5.1,3.3-6.6,5.9&#xA;&#9;&#9;c-0.6,0.5-1.3,1-1.9,1.5l-0.8-0.3c0.7-1,1.3-2.1,1.9-3.2l0.1-0.1c0.3-0.2,0.9-0.5,1.2-0.7l-0.6-0.3L293.8,177.6z"/>
	<path d="M168,240.1c0.5,0.4,1.5,1.1,2.1,1.4c-0.4,0.1-1.2,0.2-1.6,0.3C168.3,241.4,168.1,240.6,168,240.1z"/>
	<g>
		<path d="M194.4,246.1c2-1.8,2.3,1.6,3,2.8c-4.4,3-9.3,5.5-12.4,10c5.4-1.5,9.1-6.1,14.3-8c-0.2,0.5-0.5,1.4-0.7,1.8&#xA;&#9;&#9;&#9;c-1.1,1.6,1.5,1.3,2.3,1.7c-3.3,2.7-7.5,4.2-10.4,7.4c-0.3-0.1-0.9-0.4-1.2-0.5c-1.8,1.2-3.7,2.1-5.1,3.8&#xA;&#9;&#9;&#9;c-0.6-0.4-1.1-0.7-1.6-1.1c-1.9,2-3.9,4.1-5.4,6.5l-0.4-1.6c0-0.3,0-0.9,0-1.1c-3.9,3.6-8,7.7-8.7,13.2c3.1-3.8,6-7.9,8.7-12&#xA;&#9;&#9;&#9;c0.2,0.8,0.5,2.4,0.6,3.3c1.7-1.4,2.3-5.7,5-4.6c1.6-1.5,3.2-3,4.9-4.4c0.3,0.7,1,2,1.3,2.6c-0.2-0.6-0.7-1.8-0.9-2.4&#xA;&#9;&#9;&#9;c0.6-0.1,1.8-0.2,2.4-0.3c4.1-2.3,8.1-4.8,11.7-7.8c1.1,1.2,2.1,2.4,3.2,3.6c-1.7,4.5-6.9,6-9.1,10c4.1-2.1,6.8-5.9,9.9-9.1&#xA;&#9;&#9;&#9;l1.4,0.8c0.1,0.5,0.2,1.6,0.3,2.1c0.1-0.3,0.4-0.9,0.5-1.2c3.2,2.3,6.4,4.8,10.3,5.9c-1.3,0.9-3.1,2.4-1.9,4.1&#xA;&#9;&#9;&#9;c2,2.3,1.5,6.5-2,6.6l0.3-1.3c0.5-1.6,1-3.2,1.5-4.8c-3.8,2.5-5.6,6.9-7.5,10.9c-0.6,2.4-0.7,4.9-0.9,7.4c1,0,2,0,3.1,0.1&#xA;&#9;&#9;&#9;c-0.4,4.4,0.8,8.8,0.2,13.2c-0.5,2.2,0.5,4.2,1.7,5.9c-0.1,0.8-0.4,1.5-1,2.1c-1.3-0.5-2.4-1.1-3.8-1.4c3.3-6.1,1.9-13.2,2.7-19.8&#xA;&#9;&#9;&#9;c-3.6,2.2-1.9,6.8-2.5,10.2c-0.6,3.1,0.4,7.4-2.4,9.6c0.9-3.7,1.4-7.5,1.4-11.4c-0.3-1.3-0.3-3.2-2.1-3.2c-1.3,2-1.4,4.4-1.7,6.7&#xA;&#9;&#9;&#9;c-0.2-0.7-0.5-2.1-0.7-2.9c-1.8,2.2-2.6,5.1-4.5,7.2l-1.3-0.7c1.4-3.5,3.5-6.8,4.1-10.6c0.7,0.7,1.3,1.5,1.9,2.2&#xA;&#9;&#9;&#9;c0.5-2,1.3-4.1,0.5-6.1c0,0.8-0.1,2.3-0.1,3.1c-0.5,0-1.4,0.1-1.9,0.1l0.2-2.3c-2.4,4.2-4.2,8.8-7.5,12.4&#xA;&#9;&#9;&#9;c-1.5-1.4-3.8-1.9-5.1-3.4c0.3-0.6,0.7-2,1-2.6l1.4,0.7c0.5-0.4,1.6-1.3,2.1-1.7c0.1,1.7,0.1,3.4,0,5.2c0.6-1.2,0.9-2.5,0.6-3.9&#xA;&#9;&#9;&#9;c2.6-2.9,6.3-6.5,4.2-10.8c0.3-2.4,1.5-4.6,2.6-6.7c0.3,3.6-1.8,7-0.5,10.5c0.2-0.9,0.5-2.7,0.7-3.6c0.5,0.4,1.4,1.2,1.9,1.6&#xA;&#9;&#9;&#9;c1.1-4.1,1.7-8.2,2.1-12.4l-1.1-0.2c0,0.8-0.1,2.4-0.1,3.2c-0.4-0.1-1.3-0.4-1.7-0.6c-0.3,0.4-1,1.1-1.3,1.5&#xA;&#9;&#9;&#9;c0.2-1.1,0.3-2.3,0.5-3.4c1.8-4.8,4.7-9,7.2-13.4c-2.1,1.4-3.7,3.4-4.9,5.6c-2.9-0.6-4.7,2.3-6.9,3.7c0.3,0.5,0.8,1.6,1.1,2.1&#xA;&#9;&#9;&#9;c-0.7,0.8-1.3,1.6-2,2.5c0,1.9,0,3.9,0,5.8c-0.6-1.7-1.1-3.4-1.6-5.2c-0.6,1.4-1,2.9-0.4,4.4c0.7,2.4,0.2,4.9,0.2,7.4&#xA;&#9;&#9;&#9;c-0.1,0.8-0.3,1.6-0.4,2.4c-0.6,1.8-1.5,3.4-2.3,5.1c-0.6-0.7-1.3-1.4-1.9-2.1c2-1.4,2.6-3.7,3.2-5.9c-1.6,1.3-3.2,2.6-4.8,4&#xA;&#9;&#9;&#9;c-0.9-1.4-2.3-3.1-0.4-4.7c-1.6,1.1-2.5,2.7-3.6,4.2c1.5,0.1,3.1,0.3,4.6,0.6c-0.6,1.6-0.6,3.3-0.5,5c-0.5,0.2-1.4,0.5-1.9,0.6&#xA;&#9;&#9;&#9;c0.3-1.8,0.7-3.7,1-5.5c-1.9,0.6-3.9,1.3-5.8,2.1c1.2-3.4,3.3-6.5,3.7-10.2c0.4,0.4,1.1,1.1,1.5,1.4c0.9-1.9,1.9-3.8,2.8-5.7&#xA;&#9;&#9;&#9;c1.6-0.7,2.8-2,3.4-3.6c-1.6-0.2-1.8,1.4-2.3,2.5c-2.1,0.7-3.8,2.3-4,4.6c-4.3,0.8-5.7,5.5-7.4,8.9c-0.1-0.6-0.3-1.9-0.4-2.6&#xA;&#9;&#9;&#9;c-0.5,0.1-1.6,0.2-2.1,0.3c2.7-3.1,4.4-6.9,6.2-10.5c0.2,0.7,0.5,2.1,0.6,2.8c0.6-1.5,1.2-3,1.8-4.5c-1.2,1.9-3.2,1.5-5.1,1.8&#xA;&#9;&#9;&#9;c-1.4,3.3-2,6.9-4.5,9.6c-1-2.2,0.8-4.3,1.3-6.4c-1.4,1.3-2.5,3-4.2,3.9c-0.8-1.8,0.9-2.9,1.6-4.1c2-2.4,3.2-5.4,3.9-8.4&#xA;&#9;&#9;&#9;c0.4,0.8,1.1,2.3,1.4,3c-0.3-2.2-0.8-4.4-1-6.6c-1.2,2.3-2.5,4.6-3.8,6.8l-1.5-1.4l-0.6-0.5c-0.3,0.3-0.7,0.8-1,1.1&#xA;&#9;&#9;&#9;c-0.4,1.3-0.8,2.6-1.3,3.9c0.9-0.7,2.8-2.1,3.7-2.8c-0.9,2-2.4,3.6-3.8,5.3c-1.6-0.7-1.3-2.2-0.8-3.6c-1.3,0.3-3.1,0.7-3.2-1.2&#xA;&#9;&#9;&#9;c0.4-1.4,0.9-2.9,1.6-4.2c-1.2,0.9-2.6,1.6-4,2.1c1.2-1.6,2.4-3.3,4.4-3.9c-0.5-0.5-1.1-1-1.6-1.4c-1.1,1.5-2.4,2.7-4.2,3.4&#xA;&#9;&#9;&#9;c0.5-1.1,1.3-2.1,2.3-2.9c5.5-4.3,10.9-8.8,15-14.5c0.5,0.5,1,0.9,1.4,1.4c0.4-0.4,1.1-1.2,1.4-1.6c-0.5-0.7-0.4-1.5-0.4-2.4&#xA;&#9;&#9;&#9;c-7.4,5.1-14.9,10.5-21.6,16.6c-0.9-2.3,1.3-3.9,2.3-5.7c-1,0.6-2,1.3-3,1.9c-1.6-0.4-1.5-2.4-2-3.7c0.5-0.7,1.4-2,1.9-2.7&#xA;&#9;&#9;&#9;c-1,0.1-3.1,0.4-4.1,0.5l0.7-1c0.2-0.3,0.5-0.8,0.7-1.1c1.2,0.1,3.3,0.3,3.7-1.3c-0.4-0.1-1.2-0.2-1.6-0.3c3-0.9,5.2-3.1,7-5.6&#xA;&#9;&#9;&#9;l0.4,0c0.7,0,2,0.1,2.7,0.1c0.9-0.4,1.8-0.8,2.7-1.2c-2.8,2-6.1,3.5-8.7,5.7c-1,0.6-0.6,2-0.8,2.9c-1.6,1.6-2.7,3.5-3.8,5.5&#xA;&#9;&#9;&#9;c3.6-1,6.5-3.2,8.5-6.4c0,0.6-0.1,1.8-0.1,2.4c2.7-2,5.6-3.4,8.4-5.2c2.4-1.5,3.2-4.7,6-5.6c2-0.9,3.4-2.7,4.9-4.2&#xA;&#9;&#9;&#9;c0.6,0.4,1.2,0.8,1.9,1.2c0.4,0.3,1.2,0.7,1.6,1c0.3-0.2,0.9-0.6,1.2-0.7c1.1-0.5,3-0.8,3.1-2.3&#xA;&#9;&#9;&#9;C194.2,247.4,194.3,246.7,194.4,246.1z M186.4,252c-1.5,0.3-1.6,2.9,0.2,1.8C188.2,253.6,188.2,250.8,186.4,252z M190.9,258&#xA;&#9;&#9;&#9;c1.1,0.4,3.2-0.6,3-1.9C192.7,255.7,190.7,256.7,190.9,258z M185.2,261.6c1.4,0.1,4.1-1.1,3.9-2.7&#xA;&#9;&#9;&#9;C187.6,258.6,185.4,260,185.2,261.6z M185.7,272.3c1,0.5,1.9,1,2.9,1.6c-2.3,1.2-3.2,3.8-4.4,5.9c2-0.2,2.9-2,4.1-3.4&#xA;&#9;&#9;&#9;c1.6-2.2,3.8-3.9,4.8-6.5c-1.1,0.8-2.1,1.6-3.1,2.4c-0.5-0.5-1.1-1-1.6-1.5c4-3.2,8.7-6.3,10.8-11.1&#xA;&#9;&#9;&#9;C193.7,262.5,190,267.9,185.7,272.3z M181.3,262.3 M170.3,263.3 M180,276.3c2.1-3.3,4.3-6.6,7.1-9.4&#xA;&#9;&#9;&#9;C183,268.2,179.8,271.9,180,276.3z M196.6,270.9c-3.2,0.9-4.8,4.1-5.6,7.1c2-2.4,3.9-4.9,6.1-7.1c2.4-0.5,4.7-1.7,6.1-3.9&#xA;&#9;&#9;&#9;C200.9,268.1,199.2,270.3,196.6,270.9z M206.4,283.1c2.4-5.5,6.1-10.3,7.6-16.2C209.5,271,206.2,277,206.4,283.1z M208.1,269.9&#xA;&#9;&#9;&#9;c1.3,0.3,1.9-0.3,1.7-1.6C208.4,267.9,207.8,268.5,208.1,269.9z M168.9,272.3c0.1,0.4,0.2,1.3,0.3,1.8c1.2-0.6,1.8-1.6,1.7-2.9&#xA;&#9;&#9;&#9;C170.4,271.5,169.4,272,168.9,272.3z M206.1,271.3 M175.2,273.2 M182.4,276.9c1.4,0,3-1.8,2.8-3.2&#xA;&#9;&#9;&#9;C183.7,273.5,182.1,275.5,182.4,276.9z M194.2,278.7c1.4,0,2.1-2.4,1.6-3.6C194.3,275,193.5,277.5,194.2,278.7z M181.4,280.9&#xA;&#9;&#9;&#9;c1.3,0.2,1.9-0.5,1.6-1.9C181.6,278.9,181.1,279.5,181.4,280.9z M188.2,279.3 M188.4,293c2-1.2,3.3-3.1,4.6-5&#xA;&#9;&#9;&#9;c0-1.7-0.1-3.4-0.1-5.1C189.4,284.9,189,289.4,188.4,293z M204.7,295.3c2.8-1.5,3-4.8,2.5-7.6&#xA;&#9;&#9;&#9;C205.3,289.6,205.3,292.7,204.7,295.3z"/>
	</g>
	<path d="M307.8,265.8c1.4-0.4,3.4,1.2,2.9,2.7C309.5,268.8,307.6,267.1,307.8,265.8z"/>
	<path d="M300.8,275.8c1.5-0.1,3.6,1.5,3.7,3C302.9,279.3,300.7,277.3,300.8,275.8z"/>
	<path d="M238.9,297c-0.4-3.8,0.6-7.6,1.7-11.2l0.5,0.7c1.4,3.6-0.6,7.3,0.2,11C240.5,297.4,239.7,297.3,238.9,297z"/>
	<path d="M201.1,304.5c0.4,0.3,1.2,0.8,1.6,1l1.8-0.7c-0.5,1.5-0.5,3.4-2.1,4.3c0.1-0.9,0.4-2.7,0.5-3.5c-0.8,0.6-2.3,1.9-3.1,2.6&#xA;&#9;&#9;C200.3,307,200.6,305.7,201.1,304.5z"/>
</g>
<g>
	<path d="M206.9,151.8c0-1,0.2-1.9,0.6-2.8c1.1,0.8,1.8,2.8,1.1,4C208.1,152.7,207.3,152.1,206.9,151.8z"/>
	<path d="M261.2,156.1c0.3,1.4,0.6,2.8,0.9,4.1c0,0.4,0,1.3,0,1.8c-2,0.1-2.4-2-3-3.3c-0.4-0.3-1-0.8-1.4-1.1l0.4-1&#xA;&#9;&#9;c0.7,0.5,2.2,1.4,3,1.8C261.1,157.8,261.2,156.6,261.2,156.1z"/>
	<path d="M160.9,188.6c0.9,0.7,1.8,1.3,2.6,2c0.1,1.1,0.3,2.3,0.4,3.4c0,1.6,2,2.4,3.3,1.9c0.4,0.6,0.9,1.2,1.3,1.7&#xA;&#9;&#9;c0.4,0.4,1.1,1.3,1.4,1.8l-1.4,0.3c0,0-0.1,0-0.1,0c-1.1-0.3-2.1-0.8-3.1-1.2c-0.5,0.8-1.1,1.5-1.6,2.3c-2.7-0.6-5.5-1-8.2-0.6&#xA;&#9;&#9;c5.2,1.1,9.8,3.7,14.8,5.6c-0.4,0.5-1.2,1.4-1.6,1.8c-0.4-0.2-1.2-0.6-1.5-0.7c-3.7-3-8.3-5-13.1-5c0.4-1.2,0.7-2.3,1.1-3.5&#xA;&#9;&#9;c0.8-0.1,2.5-0.2,3.3-0.2c-0.6-0.4-1.8-1.1-2.4-1.5c0.1-0.6,0.2-1.8,0.3-2.5c2.9,0.5,5.1,2.5,7.8,3.6c-1.9-2.3-4.5-3.8-6.9-5.5&#xA;&#9;&#9;c0.6-0.6,1.6-1.9,2.2-2.5c0.9,0.4,1.8,0.8,2.7,1.3C161.7,190.4,161.2,189.2,160.9,188.6z"/>
	<path d="M290.5,240.1c3.7-1.2,7.9-2.5,11.7-1.6c1.5,0.7,3.3,0.8,4.8-0.1l1.8-0.8c0,0.4,0.1,1.3,0.1,1.7c-4.9,0.3-10.1-0.6-14.6,1.5&#xA;&#9;&#9;C293,240.7,291.7,240.4,290.5,240.1z"/>
	<path d="M158.9,252.6c3.1,1.3,5.9-0.6,8.7-1.6h1.6c-1,1.3-2,2.6-3,3.9c-1.8,2.5-4,4.6-7,5.6c-0.5,0.4-1.6,1.2-2.1,1.6&#xA;&#9;&#9;c-0.2,0.3-0.5,0.8-0.7,1.1c-0.4-0.5-1.3-1.4-1.7-1.9c4-2,7.9-4.1,11-7.4c-1.8,0.4-3.5,0.9-5.1,1.7c-0.1,0-0.3,0.1-0.4,0.2&#xA;&#9;&#9;c-2.2,1.1-4.6,2-7,2.5c0.6-1.9,2.5-2.4,4.3-2.5c-0.7-0.3-2.2-0.8-2.9-1.1C156.1,253.9,157.5,253.2,158.9,252.6z"/>
</g>
<g>
	<path d="M263.1,149.2c2.5-1.6,1.7,2.4,2,3.8c-0.5-0.3-1.5-0.9-2.1-1.3c-0.2,0.9-0.7,2.7-0.9,3.5c0.1-1.6,0.1-3.1,0-4.7L263.1,149.2&#xA;&#9;&#9;z"/>
	<path d="M313.1,249.1c1.2-0.7,3.9-0.6,4.5,0.7C316.4,250.4,313.7,250.5,313.1,249.1z"/>
</g>
<g>
	<path d="M258.2,149.3c1,2.3,2,4.5,3,6.8c0,0.6-0.1,1.7-0.2,2.3c-0.7-0.5-2.2-1.4-3-1.8c0.2-0.6,0.6-1.7,0.8-2.3&#xA;&#9;&#9;c-0.2-0.6-0.7-1.7-1-2.3C258,151.3,258.1,149.9,258.2,149.3z"/>
	<path d="M217.5,152.9c1.3,4.7-0.9,9.3-0.5,14.1c0.2,2.5-0.4,5.7,2,7.3c0.4-0.3,1.1-1,1.4-1.4c0.4,1.1,0.8,2.2,1.2,3.3&#xA;&#9;&#9;c-0.5,0.5-1.4,1.6-1.8,2.1c-0.1-0.6-0.3-1.8-0.4-2.4c0-0.1,0-0.3,0.1-0.4h-0.1c-1-0.1-2-0.2-3-0.2c-0.3-5.5-0.8-11.1,0.2-16.6&#xA;&#9;&#9;c0.2-1.2,0.1-2.4-0.2-3.6C216.6,154.6,217.2,153.5,217.5,152.9z"/>
	<path d="M171.7,174.5c2.3,1.7,3.3,4.3,3.4,7C173.6,179.3,172.1,177.1,171.7,174.5z"/>
	<g>
		<path d="M204.1,277.7l1.1,0.2c-0.4,4.2-1.1,8.3-2.1,12.4c-0.5-0.4-1.4-1.2-1.9-1.6c-0.2,0.9-0.5,2.7-0.7,3.6&#xA;&#9;&#9;&#9;c-1.3-3.5,0.8-6.9,0.5-10.5c0.3-0.4,1-1.1,1.3-1.5c0.4,0.2,1.3,0.5,1.7,0.6C204,280.2,204.1,278.5,204.1,277.7z M202.3,283.2&#xA;&#9;&#9;&#9;c-0.7,1.2-0.7,2.3,0,3.5C203.6,286.7,203.7,283.2,202.3,283.2z"/>
	</g>
</g>
<g>
	<path d="M263,151.7c0.5,0.3,1.5,0.9,2.1,1.3c-0.5,2.2-1,4.4-1.6,6.5c-1.6-0.9-1.6-2.6-1.4-4.2C262.4,154.4,262.8,152.6,263,151.7z"/>
</g>
<g>
	<path d="M273.5,153c0.3,1.2,0.6,2.5,1.4,3.5c0.5-0.4,1.6-1.4,2.1-1.8c-2.1,4.7-4.8,9.1-7.6,13.4c-2.2,3.3-4.1,6.7-5.8,10.2&#xA;&#9;&#9;c0.8-0.3,2.3-0.9,3-1.2c-0.5,0.7-1.5,2-2,2.7c0.4,0.5,0.9,1,1.3,1.5c2.8-5.4,7.2-9.8,9.6-15.4c0.6-0.8,1.3-1.6,1.9-2.5&#xA;&#9;&#9;c0.8-1.2,1.5-2.4,2.2-3.6c0.4-0.4,0.8-0.9,1.2-1.3l0.9-0.9l1.2,1.4c-3.9,3.3-5.6,8.3-8.1,12.6c-1.2,3.1-3.9,5.3-5,8.5&#xA;&#9;&#9;c-0.2,0.2-0.6,0.7-0.9,0.9c-4.3,1.7-6.2,6.5-8.5,10.3c-0.7-1.5,0.1-3.1,0.4-4.6c1.6,0.3,2.2-1.5,2.5-2.7c0.5-1.2,0.5-2.5,0.4-3.7&#xA;&#9;&#9;c-0.4-0.2-1.2-0.7-1.6-1c-0.4-0.3-1.3-0.8-1.8-1c4.3-6.2,8.4-12.6,11.8-19.3c0.4-0.5,1.3-1.4,1.7-1.9c-0.4-0.1-1.2-0.5-1.6-0.6&#xA;&#9;&#9;l-0.8-0.3C272.3,155.3,272.9,154.2,273.5,153z"/>
	<path d="M299,199c0.3-0.3,0.8-0.8,1.1-1C299.8,198.2,299.3,198.7,299,199z"/>
	<path d="M299,199"/>
	<path d="M175,233.2"/>
	<g>
		<path d="M267,254.7c1.1-1.5,2.2-2.9,3.6-4.1c2.7,1.4,5.6,2.2,8.6,2.3c-0.6-0.2-1.8-0.5-2.3-0.7c0.2-0.4,0.6-1.1,0.9-1.5&#xA;&#9;&#9;&#9;c2,0.4,3.4,1.8,4.6,3.3c1.5,0.1,2.9,0.3,4.4,0.4c-0.6,0.6-1.2,1.2-1.9,1.8l-1.1,0.3c-3.1-1.4-6.4-1.9-9.8-2.1&#xA;&#9;&#9;&#9;c4.5,1.6,8.7,4.1,13.2,5.6c1.8,0.7,3.8,1.2,5,2.8c-4.8-1-9.1-3.4-13.8-5c3.6,3.1,7.7,5.5,12.3,6.7c-0.4,0.5-1.2,1.4-1.6,1.9&#xA;&#9;&#9;&#9;c0.9-0.6,1.7-1.2,2.6-1.8c2.3,0.6,4.7,1.2,7,1.9l0.1,0.7c-0.9-0.9-4.2,0.5-1.9,1.1c0.5-0.1,1.5-0.4,2-0.5c0.1,0.2,0.3,0.6,0.4,0.8&#xA;&#9;&#9;&#9;c1.8,3.1,5.3,4.5,7.7,7c-1.4,1.3-2.5-0.6-3.6-1.2c-1.5-1.5-3.7-1.2-5.6-0.9c0.7,0.5,2.1,1.6,2.8,2.1c-0.7-0.1-2.2-0.2-2.9-0.2&#xA;&#9;&#9;&#9;c2,1.8,4.6,3.3,5.4,6c-3.7-2.5-8.2-3.9-10.9-7.7c-1.9-2.7-5.5-2.5-8.2-3.7c-3.2-0.9-5.9-3.4-9.3-3.4c8.8,5,17.4,10.5,25.3,16.9&#xA;&#9;&#9;&#9;l0.4,1.2c-2.4-1-4.3-2.8-6.8-3.7c1.2,2.4,4.2,3.7,4.5,6.5c-2.2-1.5-4.2-3.1-6.3-4.6c0.2-0.4,0.6-1.2,0.8-1.6c-0.9-0.7-1.9-1-3-1&#xA;&#9;&#9;&#9;c-0.1-0.4-0.3-1.1-0.4-1.5c-1.4,0.2-3.5-0.1-3.7-1.8c0.7,0.1,2,0.2,2.7,0.3c-3.9-4.3-9.5-6.1-14.3-9c-0.4,0.1-1.1,0.4-1.4,0.5&#xA;&#9;&#9;&#9;l-0.6,0.1c0.4-1.5-2-2.5-2.3-0.7c-0.4-0.3-1.2-1-1.6-1.3c0.1,0.9,0.2,2.6,0.3,3.5c-0.2,0.1-0.7,0.4-1,0.5&#xA;&#9;&#9;&#9;c-0.6-2.8-2.6-4.7-5.5-4.5c2.1,2.3,4.3,4.5,5.7,7.4c0.6,1.4,1.9,2.1,3.1,2.8c-0.5,1.5-0.5,3.2,0.6,4.5c3.5,4.1,7.8,8,8.4,13.7&#xA;&#9;&#9;&#9;l-1.3,0c-0.4-2.7-1-6-3.6-7.5c1,3.8,2.9,7.3,3.9,11c0-0.8,0.1-2.5,0.2-3.3c1,2,1.9,4.1,3.3,6c-0.7-0.4-2.1-1.3-2.8-1.7&#xA;&#9;&#9;&#9;c0.5,1.6,0.5,3.1-1.2,3.9c-0.9-2.8-3.5-5.2-2.8-8.3c0.5-4.2-3.6-7.1-7-8.4c1.4,3.7,6,5.2,6.7,9.2c-2-2-4-4.1-6.3-5.9&#xA;&#9;&#9;&#9;c1,5.7,5.2,10.7,5,16.5c-2.7-4-4.1-8.8-7-12.7c-1.4-2.5-3.9-4.4-4.7-7.3c3,0.9,3.4,5.4,6.3,6.9c-0.4-2.2-0.8-4.5-2-6.4&#xA;&#9;&#9;&#9;c1-1.9-0.4-3.4-1.6-4.8c-0.5,0.3-1.4,0.9-1.9,1.2c-1-3-2.4-5.9-4.6-8.2c-0.2,2.4,0.1,4.9,0.5,7.3c-0.7,1-1.4,2.4-0.4,3.4&#xA;&#9;&#9;&#9;c2.1,3.6,6.4,6,7.3,10.3c0.4,4.4,5.6,6.8,5.3,11.4c-1.5-2.1-2.5-4.5-4.4-6.3c0.2,2.5,0.8,5,1.4,7.4c-4.1-2.7-0.4-10.2-6-11.8&#xA;&#9;&#9;&#9;c0,3.6-0.7,7.5,1.4,10.8c1.2,1.5,0.7,2.8-1.3,2.7c-0.8-6.5-4.8-11.6-7.3-17.4c3.1,2,3.6,6.1,6,8.9c0.2-2.6,0-5.3-1.5-7.5&#xA;&#9;&#9;&#9;c0.1-0.5,0.3-1.5,0.4-2c-1-2.5-2.4-4.8-3.6-7.1c1.5-5.9,1-12.3-1.2-18c-0.6,0.2-1.9,0.7-2.5,1c1.5-3.1,5.5-3.7,7.8-6.2&#xA;&#9;&#9;&#9;c1.1,0.4,1.8,1.2,2,2.4c-0.6-0.2-1.7-0.7-2.3-0.9c-0.5,2,2.5,4,2.3,0.9c0.4,0.1,1.3,0.3,1.7,0.4c-0.7-1.4-1.5-2.8-2.2-4.2&#xA;&#9;&#9;&#9;c0.6-0.5,1.7-1.5,2.2-2c1.9,2.2,4.3,3.8,7,4.9c-0.9-2.9-3.8-4-6.1-5.5c0.6-0.8,1.2-1.5,1.9-2.3c2.4,1.6,4.8,3.5,7.8,3.8&#xA;&#9;&#9;&#9;C272.4,257.1,269.6,255.9,267,254.7z M272.4,261.4c0.1,0.3,0.4,0.9,0.6,1.2c-0.2,0.4-0.6,1.3-0.9,1.7c1.6-0.6,1.1-2.3,1.6-3.6&#xA;&#9;&#9;&#9;c0.6,0,1.9,0.1,2.5,0.1l0.5,1.1c-0.8,0.1-2.3,0.3-3.1,0.4c4.5,3.6,10.1,5,15.5,6.4c-2-1.6-4-3.3-6.6-3.9c0.6-0.5,1.3-1,1.9-1.4&#xA;&#9;&#9;&#9;c-1.6,0.4-2.4-0.7-3-2c-0.2,0.6-0.6,1.7-0.8,2.3c-1.2-0.3-3.4-0.9-4.6-1.2c0.9-0.5,1.8-0.9,2.8-1.2&#xA;&#9;&#9;&#9;C276.9,260.7,274.1,259.3,272.4,261.4z M269.3,264c-0.4,1.6,2.2,2.8,3.5,2.5C272.9,265,270.7,263.3,269.3,264z M257,264.6&#xA;&#9;&#9;&#9;c0.4,5.2,2.7,10,5.9,14c0.2,0.5,0.6,1.6,0.8,2.1c0.3-0.8,0.8-2.3,1.1-3.1c0,5.1,4.9,8.4,9.2,10.4c-0.9-2.2-1.9-4.6-4-6.1&#xA;&#9;&#9;&#9;c-2.9-2-3.9-5.5-5.6-8.4c-0.1-0.4-0.4-1.3-0.5-1.7c-0.4,0.3-1.2,0.9-1.6,1.2C261.3,269.8,259.9,266.5,257,264.6z M289.8,267&#xA;&#9;&#9;&#9;c2.8,3.2,6.6,5.1,10.9,5C298.6,268.2,293.6,268,289.8,267z M260.1,289.9c0.9,2.9,1.4,6.4,4.9,7.3&#xA;&#9;&#9;&#9;C264.4,294.1,262.6,291.6,260.1,289.9z"/>
	</g>
	<path d="M274.1,276.6c-0.3-2.2-2.2-4.9,0.6-6.3c1.3,4.4,7.2,2.7,9.4,5.6c-1.2,0.2-2.3,0.6-3.3,1.3c-0.5-1.4-1.6-2.2-3.2-2.2&#xA;&#9;&#9;c-0.9-0.2-1.8-0.4-2.7-0.6c1.7,2.5,3.4,5,5.3,7.4c0.1-1.1,0.2-3.2,0.3-4.3c1,0.2,2.1,0.3,3.1,0.5c0.9,2.9,5,0.7,6,3.3&#xA;&#9;&#9;c-1.7-0.5-3.4-0.8-4.3,0.9c-1.1-1.5-2.6-2.6-4.4-3.3c2.6,5.1,7.3,9,11,13.4c0,0.9-1.6,2-2,0.7c-3.4-4-5.8-9.8-11.5-10.9&#xA;&#9;&#9;c2.2,5.5,6.1,10.1,9.4,14.9c-1.2-0.8-2.4-1.6-3.5-2.6c0.1,1.2,0.4,3.6,0.5,4.8c-2.8-5.8-4.4-12.4-8.7-17.4c-1-0.7-2-1.3-3.1-1.8&#xA;&#9;&#9;c0.8-0.2,2.3-0.5,3.1-0.6c-0.7-0.3-2.1-1-2.9-1.3c-0.3-0.2-0.9-0.5-1.2-0.6C272.6,277.2,273.6,276.8,274.1,276.6z"/>
</g>
<g>
	<path d="M194.3,155.1c1.4-0.3,3.2-1.4,4.4-0.1c0.8,1.6,1.8,3.2,2.4,4.9c-0.7,1.5-2,2.5-3.3,3.3c0-2.9,0.1-6.3-2.4-8.3&#xA;&#9;&#9;c0.8,2.5,1.7,5,1.6,7.6c-0.5-0.8-0.9-1.6-1.4-2.3C195,158.5,194.6,156.8,194.3,155.1z"/>
	<path d="M300,197.9c0.3-0.3,0.8-0.8,1-1C300.8,197.1,300.3,197.7,300,197.9z"/>
	<path d="M301.8,209.2c4.5-2.8,9.5-4.8,14.6-6.3c-0.4,2.5-3.3,2.3-5,3.5c-2.9,2.1-6.5,3.6-8.5,6.6c1.1-0.5,3.4-1.6,4.5-2.1&#xA;&#9;&#9;c-0.9,2.5-3.9,3.7-6.1,2.2c-1.2,0.7-2.4,1.5-3.6,2.2c-0.6-0.3-1.8-1-2.4-1.4c0.9-0.7,2-1.4,3.1-1.6c0.4,0.1,1.1,0.2,1.4,0.3&#xA;&#9;&#9;c1.1-0.6,2.2-1.2,3.3-1.8C302.8,210.4,302.1,209.6,301.8,209.2z"/>
	<path d="M149.4,220.3c3-0.5,6-0.4,9.1-0.3c0.1,0.2,0.3,0.7,0.4,0.9C155.7,221.1,152.5,221.2,149.4,220.3z"/>
	<path d="M286.8,244.5c2.7,0.2,5.3-0.2,8-0.3c3.1,0.3,6.2,0,9.2-0.5c0.5,1.1,1,2.3,1.6,3.4c-1.6-0.1-3.2-0.2-4.8-0.3&#xA;&#9;&#9;c0.9-0.4,2.7-1.3,3.6-1.8c-5.4,1.1-10.8,1.3-16.3,0.9C287.8,245.6,287.1,244.8,286.8,244.5z"/>
	<path d="M210.2,288.2c0,0.2,0.1,0.5,0.1,0.7l-0.3-0.2L210.2,288.2z"/>
	<path d="M250.2,296.5c0.5-1.3,1.1-2.5,1.6-3.8c0.1,1.7,0.1,3.5,0.2,5.2c0.2,0.3,0.5,0.9,0.7,1.2c0.7,1,1.4,2,2,3.1&#xA;&#9;&#9;c0.6,3.5,2.6,6.4,4.9,9c-1.9,0.2-3.7,0.6-5.4,1.3c-0.4-2.5-0.9-5-1.5-7.4c0.4-0.6,0.8-1.1,1.2-1.7c-0.4,0.4-1.2,1.1-1.6,1.5&#xA;&#9;&#9;c-0.8-1.3-1.5-2.6-2.3-4c0.4-1.3,0.3-2.6,0-3.8L250.2,296.5z"/>
</g>
<g>
	<path d="M219,156.1c1.8,0.5,1.7,3.2,0,3.8C218.8,158.7,218.8,157.4,219,156.1z"/>
</g>
<g>
	<path d="M271.6,157l0.9-0.3c0.4,0.2,1.2,0.5,1.6,0.6c-0.4,0.5-1.3,1.4-1.7,1.9c-0.6,0.1-1.6,0.4-2.2,0.5&#xA;&#9;&#9;C270,158.6,270.5,157.7,271.6,157z"/>
	<path d="M241.6,187.1c0.2-2.1,0.5-4.2,1.1-6.2l0.4,1.6l0.7-0.5c0.4-0.2,1.3-0.7,1.7-0.9c0.6,0.5,1.2,1,1.8,1.5&#xA;&#9;&#9;c-0.7,0.9-1.5,1.8-2.2,2.6c-0.5-0.8-1.1-1.5-1.6-2.3C243.6,184.6,243,186.1,241.6,187.1z"/>
</g>
<g>
	<path d="M187.1,158.4"/>
</g>
<g>
	<path d="M258.3,160.2c0.3,0.4,0.8,1.3,1.1,1.8c0.1,1.3,0.2,2.6,0.3,3.9c-0.9-0.6-1.9-1.2-2.8-1.8&#xA;&#9;&#9;C257.3,162.8,257.8,161.5,258.3,160.2z"/>
	<path d="M183.4,189.7c1-0.4,2-0.6,3-0.6c1.7,0.9,3.3,1.9,5,2.8c-0.7,0-2,0.1-2.7,0.1c0.3,0.5,1,1.6,1.3,2.1&#xA;&#9;&#9;c-1.8-0.8-3.6-1.6-5.3-2.4c-0.1-0.1-0.4-0.4-0.5-0.6L183.4,189.7z"/>
</g>
<g>
	<path d="M262.1,160.2c0.3,0.3,1,0.8,1.3,1c-0.3,0.2-1,0.5-1.3,0.7C262.1,161.5,262.1,160.6,262.1,160.2z"/>
</g>
<g>
	<path d="M276.5,160.7c0.8-0.2,2.3-0.6,3.1-0.8c-0.7,1.2-1.4,2.4-2.2,3.6c-1-0.1-2-0.1-3-0.1C275,162.3,275.7,161.5,276.5,160.7z"/>
	<path d="M238.2,177.6c-0.2-2.6,2.6-0.8,2.6,0.8c-0.2,0.9-0.8,1.6-1.3,2.4C239,179.7,238.6,178.6,238.2,177.6z"/>
	<path d="M170.3,263.3"/>
	<g>
		<path d="M252.6,267.9c0.6-0.2,1.9-0.7,2.5-1c2.2,5.7,2.7,12.1,1.2,18c1.3,2.4,2.6,4.7,3.6,7.1l-2.1,1.2c-0.2-0.5-0.6-1.5-0.8-2&#xA;&#9;&#9;&#9;c-0.6-3.3-5.3-3.1-5.9-6.6c1-2.5,1.4-5.2,1.4-7.9c0.8,3.6-0.5,8,2.4,10.9c-1-6.6-1.1-13.2-2.8-19.6L252.6,267.9z M254.3,272.7&#xA;&#9;&#9;&#9;c1.4-0.2,1.1-2.7,0.5-3.5C253.4,269.3,253.6,271.8,254.3,272.7z M255.3,277.3c-0.7,1.1-1.1,4,0.4,4.4&#xA;&#9;&#9;&#9;C256.3,280.6,256.7,277.9,255.3,277.3z"/>
	</g>
</g>
<g>
	<path d="M280.6,162.8c0.5-1.6,1.8-3.4,3.8-3.1c-2.2,4.9-5.1,9.4-7.1,14.5c-2.2,5.5-6.8,9.4-9.9,14.3c-1.8,2.9-4.2,5.3-7.1,7.1&#xA;&#9;&#9;c0-0.4,0-1.1,0-1.5c2.3-4.7,6.9-8,8.8-12.9c0.2-0.2,0.6-0.7,0.9-0.9C275.7,176.1,278,169.1,280.6,162.8z"/>
	<path d="M280.9,169.3c1.1-3.3,3.3-6.2,6.1-8.2C285.8,164.3,283.3,167,280.9,169.3z"/>
	<path d="M276.8,175.5c0.9-0.1,2.7-0.3,3.6-0.3l0,1.4l2-0.4c-1.1,1.5-2.2,3-3.3,4.5l0.4,0.2c0.8-0.6,2.3-1.7,3-2.3&#xA;&#9;&#9;c-1.9,3.1-4.4,5.9-5.5,9.4c-0.4-0.2-1.2-0.7-1.6-0.9c-1.3,2-2.8,3.9-4.8,5.3c1.2-3,3.2-5.5,4.4-8.5c-0.5-0.1-1.5-0.2-2-0.2&#xA;&#9;&#9;c0.9-1.4,1.7-2.9,2.3-4.4c0.4,0.4,1.2,1.3,1.6,1.8c-0.4-1.2-0.8-2.4-1.1-3.6c0.5,0,1.5,0.1,2,0.2C277.6,177.1,277,176,276.8,175.5z"/>
	<path d="M269.3,189c1.5-1.8,2.6-4.2,4.9-5.3c-2,3.9-5,7.3-7.9,10.5c-1.6,1.5-3,3.7-5.5,3.8C263.7,195.1,266.8,192.4,269.3,189z"/>
	<path d="M306.7,211.9c2.2-3.4,7.2-3.4,10.9-3.7c0.3,1.8,0.5,3.6-1.7,4.2c-1.7,1-3.4,1.9-5.2,2.5c0.5-0.5,1.6-1.6,2.1-2.1&#xA;&#9;&#9;c-1.9,0.4-3.7,0.8-5.5,1.2l-0.9-0.5c3.3-1.8,8-1.2,10.5-4.2C313.4,209.3,310,210.6,306.7,211.9z"/>
	<path d="M276.1,231.1c3.5-0.8,6.6-3.2,10.4-2.7c0.1,0.4,0.4,1.1,0.6,1.4c-1,0.4-2.1,0.7-3.2,0.8c1,0.1,3,0.2,4.1,0.3&#xA;&#9;&#9;c-0.8,1.4-2.2,1.8-4.1,1.2c-0.3-0.2-0.8-0.5-1.1-0.6c-2.4,0.3-4.7,0.4-7.1,0.3L276.1,231.1z"/>
	<path d="M315.9,232c0.4-0.3,1.1-0.9,1.4-1.2c1.3,0.3,2.2,1,2.5,2.1C318.6,233.6,316.6,233.2,315.9,232z"/>
</g>
<g>
	<path d="M204.7,169.2c-1.3-2.6-2.4-5.5-1.2-8.3C203.8,163.6,206.6,166.6,204.7,169.2z"/>
</g>
<g>
	<g>
		<path d="M265.9,160.6c1,0.8,1.8,2.2,3.5,1.7c-4,6.1-7.4,12.4-11.3,18.5l0.8-0.5c0.3,0,0.8,0,1.1,0c0.1,1.2-1,2.1-1.5,3.1&#xA;&#9;&#9;&#9;c-1.7,2.4-2.4,5.3-3.3,7.9c3.8-2.9,5.6-7.5,7.4-11.8c0.4,0.2,1.2,0.7,1.6,1c0.1,1.3,0,2.5-0.4,3.7c-1.4,0-2.9,1.1-2.5,2.7&#xA;&#9;&#9;&#9;c-1.8,1.7-2.9,3.9-4.2,6c1.2-0.4,2.5-0.7,3.8-1c-0.9,1.3-1.6,3.1-3.3,3.5c-1.7-0.9-3-2.1-2-4.2c-0.6,0.5-1.9,1.5-2.5,2&#xA;&#9;&#9;&#9;c0.9-3.2,2.9-6,3.2-9.4c-1.8,2.5-3.2,5.3-4.5,8.1c-1-0.6-2-1.1-2.9-1.7c-0.5,0.1-1.4,0.2-1.9,0.3l0.2-0.8c0.2-0.5,0.7-1.4,0.9-1.9&#xA;&#9;&#9;&#9;c0.5,0.3,1.6,0.8,2.1,1c0.6-1.1,1.5-2.2,1.9-3.4l-0.5-0.4l-0.6-0.5c3.7-2.8,6.4-6.9,7.1-11.5c0.8,0.1,1.5,0.3,2.3,0.5&#xA;&#9;&#9;&#9;C262.7,169.5,265.1,165.3,265.9,160.6z M255.3,182.3"/>
	</g>
	<path d="M256.5,164.8c0.4,1.4,0.9,2.9,0.2,4.3c-1.7-0.3-2.3,1.5-3.1,2.5c-1.9,3.3-4.3,6.3-6,9.7c-0.8-0.8-1.6-1.5-2.4-2.2&#xA;&#9;&#9;c1.2-2.2,2.2-4.4,3.7-6.3c-0.3,1.6-0.6,3.2-0.9,4.8C251.2,173.5,253.8,169.1,256.5,164.8z"/>
	<path d="M304.8,222.7c1.2-0.5,2.5-0.8,3.8-0.8l-1.4,2c1.4,0,2.9,0,4.3,0c0.3,0.2,0.8,0.5,1,0.7c-3.4,0.5-6.7,0.9-10.1,1.2&#xA;&#9;&#9;C303.2,224.7,304,223.7,304.8,222.7z"/>
	<path d="M284.2,224.5c0.4-0.1,1.3-0.4,1.7-0.5c0.3,1.1,1.1,1.9,2.4,2.1c-3.8,0.4-6.8,3.2-10.5,3.6l-1.6-1.3c0,0.7-0.1,2-0.2,2.6&#xA;&#9;&#9;l-0.4,0.6c2.4,0.1,4.7-0.1,7.1-0.3c0.3,0.1,0.8,0.5,1.1,0.6c3.7,2.2,8.2,0.1,12.2,0.1c4,0,7.8-1.2,11.8-1.1l-1.5,1.7&#xA;&#9;&#9;c-2.9,0-5.8,0.4-8.6,1c-3.8,1.3-8.7,0.2-11.8,2.9c8.5,0,17-1.3,25.4-0.2c-0.4,0.1-1.2,0.4-1.5,0.5c-10.4-0.3-20.8,2.1-31.2,0.6&#xA;&#9;&#9;c2.1-0.2,4.2-0.5,6.3-0.8l-0.3-0.7c-0.2-0.3-0.6-0.9-0.8-1.2c-0.8-0.4-1.7-0.9-2.5-1.3c-0.2,0.4-0.5,1.1-0.7,1.5&#xA;&#9;&#9;c-1.7,0.1-3.4,0.1-5.1,0.1c0-2.3-0.2-4.5-0.3-6.8c3.6-0.4,7-1.6,10.4-2.6C285.2,225.4,284.5,224.8,284.2,224.5z"/>
	<path d="M194.3,291.4c0.8-1.6,1.6-3.1,2.3-4.7c0.3,1.6,0.6,3.2,0.9,4.8c-1,2-1.7,4.8-4.1,5.6c0.1-0.8,0.4-2.4,0.5-3.3&#xA;&#9;&#9;C194,293,194.1,292.2,194.3,291.4z"/>
</g>
<g>
	<path d="M190.1,163.7"/>
	<path d="M307,187.1"/>
	<path d="M240.3,272.4c1.5,0.2,1.5,4,0,4.3C239.7,275.4,239.7,273.6,240.3,272.4z"/>
	<path d="M202.3,283.2c1.4,0,1.3,3.5,0,3.5C201.6,285.5,201.6,284.4,202.3,283.2z"/>
</g>
<g>
	<path d="M274.3,163.4h0.1c1,0,2,0.1,3,0.1c-0.6,0.8-1.3,1.7-1.9,2.5c-1.8,1.7-3.5,3.5-5,5.5c-1.8-0.8-3.1,1.3-2.4,2.8&#xA;&#9;&#9;c-0.5,1-1.1,1.9-1.7,2.8c-0.8,0.3-2.3,0.9-3,1.2c1.7-3.6,3.6-7,5.8-10.2c0.3,0.2,1,0.7,1.4,0.9C272,167.2,273.2,165.3,274.3,163.4z"/>
	<path d="M255.3,182.3"/>
	<path d="M193.6,185.1c2,1.1,3.9,2.5,5.6,4c-0.1-0.6-0.2-1.7-0.3-2.3c0.9,1,1.7,2,2.5,3.1C197.7,192,195.1,187.9,193.6,185.1z"/>
	<path d="M163.4,238.1c2.9-2.9,6.8-4.1,10.4-5.8c0.1,0.6,0.4,1.9,0.6,2.5c-1.3,0.5-2.5,1-3.9,1.4&#xA;&#9;&#9;C168.1,236.8,165.8,237.5,163.4,238.1z"/>
	<path d="M294.8,244.2c2.8-2.2,7.2-1,10.6-1c1.4,0.3,2.7,0.7,4.1,1c2.9,0.9,5.9,0.8,8.8,0.8c-0.2,0.3-0.5,1-0.7,1.3&#xA;&#9;&#9;c-3.9-0.7-7.8-0.3-11.2,1.6c-8.2,0.2-16.3-1.1-24.4-2.5c1.5-0.4,3.1-0.8,4.6-1.1l0.2,0.2c0.3,0.4,1,1.1,1.4,1.4&#xA;&#9;&#9;c5.5,0.4,10.9,0.2,16.3-0.9c-0.9,0.4-2.7,1.3-3.6,1.8c1.6,0.1,3.2,0.2,4.8,0.3c-0.5-1.2-1-2.3-1.6-3.4&#xA;&#9;&#9;C301,244.1,297.9,244.4,294.8,244.2z"/>
	<g>
		<path d="M238.9,270.9c1.3-0.4,2.7-0.7,4.1-1c-0.7,3.3-1.5,6.6-1.2,10c0.3,2.7,0.9,5.4,0.4,8.1l-1.1-1.4l-0.5-0.7&#xA;&#9;&#9;&#9;c-1.1,3.6-2.1,7.4-1.7,11.2c0.8,0.2,1.6,0.4,2.4,0.5c0.1,0.3,0.3,1,0.4,1.4c-0.4,0.3-1.1,1-1.4,1.4l-0.7,0.7l-1.4-1.2&#xA;&#9;&#9;&#9;c-0.1-0.4-0.1-1.2-0.2-1.6c0.2-4.2,0.3-8.5-0.7-12.7C239.2,280.8,239.3,275.8,238.9,270.9z M240.3,272.4c-0.7,1.3-0.7,3,0,4.3&#xA;&#9;&#9;&#9;C241.8,276.4,241.8,272.6,240.3,272.4z"/>
	</g>
	<path d="M274.9,274.5c0.9,0.2,1.8,0.4,2.7,0.6c1.1,0.7,2.1,1.6,2.9,2.5c-0.1,1.1-0.2,3.2-0.3,4.3&#xA;&#9;&#9;C278.4,279.5,276.6,277,274.9,274.5z"/>
</g>
<g>
	<path d="M196.7,163.3l1.3-0.2c-0.5,4.2,3,6.7,4.7,10c-3.3,0.4-5.5-3-6.1-5.8C196.7,166.4,196.7,164.3,196.7,163.3z"/>
	<path d="M152.6,202.6c2.6,0.5,4.8,2,7.2,3.1l-0.1,0.3c-0.1,0.2-0.2,0.6-0.3,0.8c1.3,0.8,2.9,1.5,4.5,0.8c0.8-0.2,2.4-0.6,3.2-0.7&#xA;&#9;&#9;c0.4,0.2,1.1,0.6,1.5,0.7c-0.4,0.5-1.2,1.4-1.6,1.9c-3.4,1.5-6.9-0.6-10.1-1.6l-0.4-1.5C155,205.4,152.8,204.8,152.6,202.6z"/>
	<g>
		<path d="M159.6,230.1c1.6-0.1,3.1-0.1,4.7-0.2c-0.7,1.1-1.4,2.2-2.2,3.2c-0.9,0.7-2,1.2-3.2,1.6c5.2,1.5,9.7-3.8,14.8-2.4&#xA;&#9;&#9;&#9;c-3.6,1.7-7.5,2.9-10.4,5.8c2.4-0.6,4.7-1.3,7.1-1.9c-0.2,0.4-0.6,1.1-0.9,1.5c3.8-1.3,7.7-2.4,11.5-3.8c3.9-1.6,8.1-0.9,12.1-0.6&#xA;&#9;&#9;&#9;c-0.6,1.6-0.2,3.2,0.6,4.6c-3.1,0.1-6.1-0.5-9.2-0.1c0.1-0.6,0.3-1.7,0.4-2.3c0.9,0,2.8,0.1,3.8,0.2c-3-1-5.9,0.2-8.8,0.9&#xA;&#9;&#9;&#9;c1.8-0.4,3.4,0.3,4.6,1.6c-2.1,0.2-4.1,0.6-6.1,1.3l0.2-0.6l0.2-0.6c-2.8-0.5-5.2,0.9-7.4,2.4c-0.9-0.3-2.6-0.8-3.4-1.1&#xA;&#9;&#9;&#9;c-2.6,1.1-5.2,2.2-7.8,3.5c0.6,0.7,0.8,1.5,0.6,2.5c-3.5,0.4-7,0.9-10.5,0.7c-0.2-1.3-0.3-2.5-0.5-3.8c1.5-0.6,3-1.2,4.4-1.9&#xA;&#9;&#9;&#9;c-1.7-0.6-5.2,0.9-5.3-1.9c4.8,0.5,10.3,1.3,14.2-2.2c-4.4,0.4-9.2-0.5-13.1,2c-0.4-1-0.9-2-1.3-2.9c1-0.8,2-1.5,3-2.2&#xA;&#9;&#9;&#9;c-1.3-0.4-2.4-1.1-3.4-1.9c1.5-0.2,3.1-0.3,4.6-0.4c1.3,0.3,2.5,0.6,3.8,0.9c-1.6,1.2-3.3,2.2-4.9,3.3c3.4,0.1,6.4-1.3,9.3-2.8&#xA;&#9;&#9;&#9;C160.8,231.6,160,230.6,159.6,230.1z M155.6,241.7c-1.7,0.8-3.8,1-5,2.5c2.1,0,4.3,0.2,6.3-0.4c1.9-1.2,3.6-2.6,5.7-3.4&#xA;&#9;&#9;&#9;C160.2,239.6,157.8,241,155.6,241.7z"/>
	</g>
	<path d="M273.7,241.8c0.2-0.8,0.7-2.4,1-3.1c2,0.2,3.9,0.5,5.8,1.3c-1,0.7-1.9,1.4-2.8,2.1c4.9-1,10.1-2.1,14.9,0&#xA;&#9;&#9;c-3.2,1.4-6.9,0.1-10.1,1.7c-1.7-0.3-3.4-0.6-5.1-0.8L277,241c0-0.2-0.1-0.5-0.2-0.7C275.8,240.8,274.8,241.3,273.7,241.8z"/>
	<path d="M234,270.5c3.1,0.4,0.8,4.6,3.4,5.4c0-1.9,0-3.8,0.4-5.7c0.3,3.8,0.4,7.6,0.1,11.3c-0.5-1.1-0.9-2.2-1.4-3.3&#xA;&#9;&#9;c-0.1,0.1-0.3,0.3-0.4,0.3l-0.4,0.3C235.3,276,233.1,273.5,234,270.5z"/>
</g>
<g>
	<path d="M199.2,164"/>
	<path d="M278.3,174.3"/>
	<path d="M294.5,216.2"/>
	<path d="M237.8,270.2l1.1,0.6c0.4,4.9,0.3,9.9-1.6,14.6c-0.1,0.9-0.3,2.6-0.4,3.4c-2.7-2.6-0.3-6.9-0.9-10.3&#xA;&#9;&#9;c0.1-0.1,0.3-0.3,0.4-0.3c0.5,1.1,0.9,2.2,1.4,3.3C238.2,277.8,238.1,274,237.8,270.2z"/>
</g>
<g>
	<path d="M192.7,167.8l1.7-0.1c1.9,3.2,4.4,5.9,7.7,7.5c-0.7,0.7-1.5,1.5-2.2,2.2c-3-2.4-5.3-5.6-7.5-8.7L192.7,167.8z"/>
</g>
<g>
	<g>
		<path d="M288.5,171.9c1.5-1.9,3.4-3.2,5.5-4.4l-0.5,2c0.7-0.1,2-0.2,2.7-0.2c-5.3,3.4-9.1,8.4-12.5,13.6c0.4,0.4,0.8,0.8,1.3,1.1&#xA;&#9;&#9;&#9;c2-2.3,4.3-4.4,6.1-6.8c1,0.4,2.1,0.7,3.1,1.1l0.6,0.3c-0.3,0.2-0.9,0.5-1.2,0.7l-0.1,0.1c-3.9,2.1-6.7,5.6-9.5,8.9&#xA;&#9;&#9;&#9;c0.8,0.5,1.7,1,2.5,1.6c-3.9,1.7-7.1,4.8-8.9,8.6c4.6-2.3,7.8-6.4,11.4-9.9c-0.9-0.5-1.7-1-2.6-1.5c2-1.3,3.7-2.9,5.3-4.6l0.8,0.3&#xA;&#9;&#9;&#9;c0,1.1-0.1,2.3-0.1,3.4c-2,3.2-5.2,5.4-7.1,8.6c1.8-1,3.5-2.3,5-3.7l0.1,0c0.4,0.1,1.3,0.3,1.7,0.4c2-1.2,3.3-3.1,4.4-5.1&#xA;&#9;&#9;&#9;c0.5-0.6,1.1-1.2,1.6-1.9l0.6,0.3l1.1,0.6c-1.9,2.1-3.8,4.2-5.9,6.2l2.8-0.7c-1.3,1.3-2.6,2.5-3.9,3.8c2.4-0.8,4.3-2.5,6-4.3&#xA;&#9;&#9;&#9;c-0.6,0-1.9,0.1-2.5,0.1c3.1-2.9,6.2-5.8,9.4-8.7c0.5,0.9,0.9,1.8,1.4,2.7c-2.5,1.8-5.2,3.3-7,5.9c1.7-0.9,3.3-1.8,5.1-2.6&#xA;&#9;&#9;&#9;c1.4,0.3,2.9,0.4,4.4,0.5c0.6,1.1,1.2,2.3,1.8,3.4c-2.3,0.7-4.5,2.8-6.9,1.8c1.9-0.8,3.7-1.8,5.4-2.9c-2.4,0.5-5,1.1-6.7,3&#xA;&#9;&#9;&#9;c-4.2,0.9-5.8,5.5-9.4,7.5c1.9-4.4,5.9-7.1,9.3-10.1c-6.5,1.6-9,8.5-14.3,11.8c0.5,0.4,0.9,0.9,1.4,1.3c1.1-1.2,2.3-2.5,3.4-3.7&#xA;&#9;&#9;&#9;c0.1,0.6,0.2,1.7,0.3,2.3c0.9-0.6,2.8-1.7,3.7-2.3c-2.8,4.8-8.2,6.7-12.8,9.4c3.7-0.5,6.9-2.5,9.9-4.4c3.4-2.2,5.3-6.1,9-7.9&#xA;&#9;&#9;&#9;c-0.8-0.3-1.7-0.6-2.5-0.9l-0.2-0.1c0.7-1,1.4-2,2.1-2.9c0.3,0,1-0.1,1.3-0.1c-1,1,0.1,1.9,0.7,2.7c1.1-0.6,3.2-1.7,4.3-2.2&#xA;&#9;&#9;&#9;l-1.6,1.3c-2.2,1.5-4.5,2.9-6.3,5.1c0.1,0.6,0.2,1.8,0.3,2.4c-1.1,1.1-2.2,2.3-3.3,3.4c3.7-1.5,6.4-4.6,9.4-7.3&#xA;&#9;&#9;&#9;c0.4-0.1,1.2-0.2,1.6-0.2c-1,1.2-2,2.4-3,3.6c2.8-1.3,5.6-2.7,8.6-3.4c-0.2,1-0.8,1.5-1.8,1.7c-5.3,1.8-9.6,5.5-13.9,9&#xA;&#9;&#9;&#9;c0.2,0.5,0.6,1.5,0.8,2l-1.7,0.4c-1.2,0.3-2.2,0.9-3.1,1.6l-1.2,1.3l-1.5-0.7c-0.1-0.3-0.2-1-0.2-1.3c0.5-0.4,1.4-1.1,1.9-1.5&#xA;&#9;&#9;&#9;c0.5-0.2,1.4-0.7,1.9-0.9c1.4-1.3,3.2-2.2,4.3-3.8c-3.3,1.6-6.6,3.3-9.8,4.9c-0.1-0.3-0.2-1-0.3-1.3c-0.3,1.7-2.5,2.7-4,2.1&#xA;&#9;&#9;&#9;c-1.7-0.8-3.2,0.7-4.9,0.8c0.6,0.1,1.8,0.4,2.4,0.6c-0.2,0.6-0.7,1.8-0.9,2.5c-3.2-1.5-5.8,1.5-8.7,2c-1.5-3.5,3.3-4.3,5-6.5&#xA;&#9;&#9;&#9;c-2.2,0.6-3.9,2.3-5.9,3c-1.9-2.4,1.4-3.6,2.9-4.8c-1.4,0.5-2.8,1-4.2,1.5c-1.1-1.9-2.1-3.8-3.3-5.6c0.3-0.6,0.9-1.9,1.2-2.5&#xA;&#9;&#9;&#9;l0.1-0.3c0.1-0.2,0.4-0.7,0.5-0.9c4.3-0.2,5.7-4.8,7.6-7.8c2.3-2.3,4.2-5,5.8-7.8l0,0c0.3-0.2,0.7-0.7,1-0.9&#xA;&#9;&#9;&#9;c-0.9-0.7-1.7-1.4-2.5-2.2c2.4-4.5,5.4-8.7,9.1-12.3L288.5,171.9z M291.3,195.3 M280.3,202.7c0.6,0.1,1.7,0.3,2.3,0.4&#xA;&#9;&#9;&#9;c-1.1,0.9-2,1.9-2.8,3c5-1.2,8.8-5.2,12.1-9c-2.9,1.2-5.6,2.9-7.8,5.2c-0.5-0.5-1-0.9-1.6-1.4c2-0.7,3.7-1.7,5.1-3.3&#xA;&#9;&#9;&#9;C284.4,198,282.3,200.4,280.3,202.7z M273,205.9c1.6-1.4,3.1-3,4.2-4.9C275,202,273.8,203.9,273,205.9z M280,208.7&#xA;&#9;&#9;&#9;c0.9,0.4,1.8,0.9,2.8,1.3c-0.4-0.4-1.1-1.3-1.5-1.8c2.4-0.8,4.7-1.7,7.2-2.2c-0.6-0.5-1.1-0.9-1.7-1.4&#xA;&#9;&#9;&#9;C284.5,205.9,282.2,207.2,280,208.7z M274.3,208.3 M277.3,209.1 M280.3,211"/>
	</g>
	<path d="M309.6,216.4c0.2,0.3,0.5,0.7,0.7,1l0.7,1c2.7-0.2,5.4-0.4,8.1-1c-0.2,1.9-2.4,1.4-3.7,2c0.1,0.3,0.3,0.9,0.4,1.2&#xA;&#9;&#9;c1.2,0.4,3.5-0.8,4.3,0.9c-2.9,0.4-5.8,0.6-8.7,0.8l0,1.5c3-0.3,6-0.5,9-0.4c-1.6,2.4-5.3,0.8-7.8,1.4c-0.2-0.2-0.7-0.5-1-0.7&#xA;&#9;&#9;c-1-0.7-1.9-1.3-2.9-1.9c1.7-0.7,3.5-1.6,5.3-0.7c0.1-0.5,0.4-1.5,0.5-2c-1.7,0.2-3.3,0.3-5,0.2c-1.6-0.2-3.1-0.5-4.6-0.8&#xA;&#9;&#9;C306.4,218,308,217.2,309.6,216.4z"/>
</g>
<g>
	<path d="M248.9,172.8c0.3-0.4,1-1.4,1.3-1.8c-0.1,0.4-0.4,1.2-0.5,1.7L248.9,172.8z"/>
</g>
<g>
	<path d="M268.2,174.3c-0.7-1.6,0.5-3.7,2.4-2.8C270.1,172.6,269.3,173.6,268.2,174.3z"/>
</g>
<g>
	<path d="M291,177.1c1.9-2.3,3.6-6.1,7-6.1c-1.3,2-3.1,3.7-4.9,5.4c0.2,0.3,0.5,0.9,0.7,1.2l0.4,0.6&#xA;&#9;&#9;C293.1,177.9,292.1,177.5,291,177.1z"/>
</g>
<g>
	<path d="M178.8,171.6c1.4,0.5,2.5,1.6,3.2,2.9c-0.1,0.3-0.3,0.8-0.4,1.1c-1-0.6-2-1.3-2.7-2.3C178.9,172.9,178.8,172.1,178.8,171.6&#xA;&#9;&#9;z"/>
</g>
<g>
	<path d="M227,173.1c0.6-0.3,1.6-1,2.2-1.3c-0.1,0.7-0.2,2.2-0.2,3c-0.4,0-1.2,0-1.6,0C227.2,174.3,227.1,173.5,227,173.1z"/>
</g>
<g>
	<g>
		<path d="M168.3,175.2c1.1-0.9,2.2-1.8,3.3-2.6c0,0.5,0.1,1.4,0.1,1.9c0.4,2.6,1.9,4.8,3.4,7c0.2,0.5,0.6,1.5,0.9,2.1&#xA;&#9;&#9;&#9;c0.3,0.8,0.7,1.5,1.2,2.3c1.1-0.2,1.9-0.9,2.4-1.9c0,0.3,0.1,0.8,0.2,1.1l0.2,1.6c0.8,1.5,1.7,2.8,2.7,4.2&#xA;&#9;&#9;&#9;c0.1,0.6,0.4,1.8,0.5,2.3c2.3,2.1,5.1,3.6,8,4.4c0.2,0.1,0.5,0.2,0.6,0.2l0.6,0.3c2.2,1.2,4.1,2.9,6,4.5c0.9,0.8,1.7,1.5,2.6,2.2&#xA;&#9;&#9;&#9;c-0.9,1.1-1.7,2.3-2.5,3.4c-1.1-1.2-1.4-2.6-0.9-4c-3.2-2.8-6.6-5.5-10.7-6.6c0.6,0.6,1.7,1.7,2.3,2.3c-0.3,0.6-0.7,1.2-1,1.8&#xA;&#9;&#9;&#9;c1.2,0.8,2.3,1.7,3.5,2.6c-0.3-0.9-0.5-1.9-0.7-2.8c2,0.9,4.5,1.3,5.8,3.3l-2.8-0.5c1.5,1.4,3,2.8,4.6,4.1c-0.6,1.5-1.3,3-1.9,4.5&#xA;&#9;&#9;&#9;c-6.2-2.6-11.7-7.4-18.6-7.8c5.6,3.5,11.3,7.1,17.9,8.3c-0.2,1.8-0.8,3.5-1.4,5.2c-3.1-0.2-6.7,0.3-9.3-1.8&#xA;&#9;&#9;&#9;c-1.8,1.2-4.1,0.5-6.2,0.8c2.4,0.2,4.9,0.2,7.2,1.3c2.5,1.2,5.4,0.6,8.1,0.8c-0.3,1.3-0.6,2.5-0.9,3.7c-1.7,0.5-3.9,0.2-5.2,1.6&#xA;&#9;&#9;&#9;c1.2,0,3.7,0,4.9,0l0.1,1.5c-3.7-0.5-7.4-0.2-11.1,0.1c3.5,1.8,7.3,0.1,11,0.1c-0.1,2.1-0.2,4.1,0.3,6.1&#xA;&#9;&#9;&#9;c-4.6-0.4-9.4-1.9-13.9-0.3c-2.8,1.2-5.4-0.9-8-1.4c-3.1,0.3-6,1.3-8.9,2.1c0.8-1.1,1.5-2.1,2.2-3.2c-1.6,0.1-3.1,0.1-4.7,0.2&#xA;&#9;&#9;&#9;c-0.3,0-1,0-1.3,0l-0.6-1.5c3.8-1,7.6-0.1,11.4,0.6c4.1-0.3,8.3-0.6,12.2-1.6c-5-1.5-10.2,0-15.3-0.1c-5.8,0.2-12.1,0.7-17.4-2.1&#xA;&#9;&#9;&#9;c4.3-0.7,8.7-1.6,13.1-1.4c0.4,0.2,1.1,0.6,1.5,0.7c-2.5,0.2-5,0.5-7.5,0.8c6.1,0.9,12.2,0.4,18.3-0.2c4.8,0.3,9.5-0.6,14.1-1.8&#xA;&#9;&#9;&#9;c-4.8-1.1-9.7-0.1-14.5-0.7c0.3-0.2,0.7-0.6,1-0.8c5.3-0.5,10.6,0.7,15.8-0.6c-7.1-0.5-14.4-1.9-21.4-0.1c0.7-0.8,1.4-1.5,2.1-2.3&#xA;&#9;&#9;&#9;c-3.1,0.8-6.3,1.1-9.4,0.2c1.5-0.3,3-0.6,4.5-0.9c-5.3-0.5-10.7-0.5-16-0.5l-0.1-1.1c2.6,0,5.2,0,7.8-0.3&#xA;&#9;&#9;&#9;c-2.4-1.2-6.2-0.6-7.7-3.2c8.1,2.4,16.4,4,24.9,4.3c-3.7-0.8-7.3-2.1-11-2.9c0.9-0.7,1.9-1.4,2.8-2.1c-0.9,0.1-2.7,0.2-3.6,0.2&#xA;&#9;&#9;&#9;c0.2-0.6,0.5-1.8,0.7-2.4c-2,0.6-3.9,1.4-5.6,2.4l-0.3,0.1c-2.2-0.9-6.2-0.1-7.1-2.9c2.3,0,5-0.6,6.8,1.3c1.2-0.4,2.3-0.7,3.5-1.1&#xA;&#9;&#9;&#9;c-3-1-6.1-2-9.1-2.8c0.1-0.3,0.2-1,0.3-1.3c1.6,0.5,3.1,1,4.7,1.5c3.2,1,6.7,3.1,10.1,1.6c1.9-0.4,3.7-1,5.4-1.9&#xA;&#9;&#9;&#9;c-1.4,0.9-1.3,2.5-1.7,3.9l3.1-0.6c-0.4,0.4-1.2,1.3-1.6,1.8c1.9-0.6,3.8-0.6,5.6,0.3c3.9,1.6,8.1,1.7,12.2,1.8&#xA;&#9;&#9;&#9;c-2.5-0.7-4.9-1.6-7.2-2.8c-3.5-1.9-7.8-1.1-11.4-3.1c1.2,0,3.6-0.1,4.8-0.1c-2.2-1.2-4.8-1.8-6.5-3.9c-1.7-1.9-3.9-3.2-6.3-4.2&#xA;&#9;&#9;&#9;c0.5-0.8,1.1-1.5,1.6-2.3c1,0.5,2,0.9,3.1,1.2c0,0,0.1,0,0.1,0l1.4-0.3c2,2,4.3,3.7,7,4.7c-2.3-2.4-6.4-3.8-6.3-7.7&#xA;&#9;&#9;&#9;c0.5-0.1,1.5-0.2,2-0.2c-1.3-1.5-2.6-2.9-4.1-4.1l-0.5,0.5c-0.3,0.3-0.8,0.9-1.1,1.1c-0.1-0.1-0.3-0.4-0.4-0.6l-0.1-0.2&#xA;&#9;&#9;&#9;c-0.4-2.4-2.3-4.1-3.9-5.8c-0.4-0.5-1.3-1.5-1.8-2c4.2,0.6,6.3,5.2,10.1,7c-1.3-4.2-4.8-6.9-7.3-10.2l0.2-1.2&#xA;&#9;&#9;&#9;c0.6,0,1.7,0.1,2.2,0.1c-0.3-0.4-0.8-1.2-1.1-1.6c0.5-0.2,1.4-0.7,1.9-0.9c2,1.6,3.8,3.4,5.5,5.2l-0.4,0.7&#xA;&#9;&#9;&#9;c-1.1-0.8-2.2-1.5-3.3-2.2c1.3,1.6,2.8,3.1,4.2,4.6c0,0.6-0.1,1.7-0.1,2.3c-1.2-1.1-2.5-2.1-3.8-3c1.9,4.2,4.2,8.3,7.8,11.3&#xA;&#9;&#9;&#9;c-0.5,0.2-1.4,0.5-1.9,0.7c0.2,0.1,0.7,0.3,0.9,0.4c1.2-1.3,2.8-0.2,4.2,0.2c0.1-0.3,0.4-1,0.5-1.3c1.2,0.8,2.4,1.5,3.6,2.2&#xA;&#9;&#9;&#9;c-1.1-1.5-2.4-2.9-3.7-4.2l-0.1,2.1c-2.3-2.4-4.7-4.7-6.8-7.3c0.7-0.8,1.3-1.5,1.9-2.3c1.1,3,3.6,5,6.7,5.8&#xA;&#9;&#9;&#9;c-1.1-0.7-2.3-1.4-3.4-2c-0.8-1.6-1.6-3.3-2.5-4.8c-1-1.7-2.1-3.2-3.2-4.8C171.7,179.5,170,177.3,168.3,175.2z M167.3,182.2&#xA;&#9;&#9;&#9; M185.2,198.2 M176.9,200.1c2,1.9,4.6,2.9,7.2,3.7C183.5,200.5,179.5,200.5,176.9,200.1z M183.1,200.1c0.4,0.3,1.3,1,1.8,1.4&#xA;&#9;&#9;&#9;c1.6,4.7,7.2,5.3,11.1,7.4c-3.2-2.3-6.3-4.8-10-6.2c-0.1-0.6-0.4-1.8-0.5-2.4C184.8,200.2,183.6,200.1,183.1,200.1z M173.3,204.2&#xA;&#9;&#9;&#9; M167.8,213.1c3.1,1.9,6.9,2.3,10.5,2.8C175.1,214.1,171.4,213.5,167.8,213.1z"/>
	</g>
	<path d="M722.8,331.7c5.6-2.4,12.7,0.7,14,6.8c-0.6,0.1-1.7,0.2-2.2,0.3c-1.4-5.5-8.6-7.7-12.9-4.1c-4.2,3.5-4.5,10.1-2.2,14.8&#xA;&#9;&#9;c2.1,4.3,8.3,6,12.1,2.9c2-1.4,2.6-3.9,3.2-6.1c0.6-0.1,1.7-0.2,2.3-0.2c-0.4,2.9-1.5,6-3.9,7.9c-4.8,3.8-12.8,2-15.6-3.4&#xA;&#9;&#9;C714,344.4,715.6,334.6,722.8,331.7z"/>
	<path d="M659.4,331.5c6.4,0,12.8-0.2,19.2,0.1c-0.2,0.5-0.6,1.4-0.8,1.8c-2.6,0.2-5.2,0-7.8,0.1c-0.1,7.3,0.1,14.5,0,21.8&#xA;&#9;&#9;c-0.6,0.1-1.7,0.3-2.2,0.3c0-7.4,0-14.8,0-22.1c-2.8,0-5.5,0-8.3,0L659.4,331.5z"/>
</g>
<g>
	<path d="M178.9,173.4c0.6,1,1.7,1.6,2.7,2.3c0.1-0.3,0.3-0.8,0.4-1.1l0.9-1c0.2,0.5,0.4,1.5,0.6,2c0.1,0.6,0.4,1.7,0.5,2.3&#xA;&#9;&#9;c-0.2,0.7-0.7,2.2-0.9,2.9C181.4,178.4,179.5,176.2,178.9,173.4z"/>
</g>
<g>
	<path d="M196.2,176.3c-1.7,1.5-3.7-1-2.4-2.6C195.3,173.9,196.1,174.8,196.2,176.3z"/>
</g>
<g>
	<path d="M212.1,175.3"/>
</g>
<g>
	<path d="M216.3,175.3c1,0.1,2,0.1,3,0.2l0.1,0.4c0.1,0.6,0.3,1.8,0.4,2.4c0.1,0.5,0.4,1.4,0.6,1.9c-0.4,0.7-0.7,1.4-1.1,2.1&#xA;&#9;&#9;c0.2,0.8,0.5,2.3,0.7,3.1c-1.1-1.3-2.2-2.7-3.2-4C218.6,179.4,217.5,177.3,216.3,175.3z"/>
</g>
<g>
	<path d="M219.3,175.5h0.1c0,0.1,0,0.3-0.1,0.4L219.3,175.5z"/>
	<path d="M214.3,179.2"/>
	<g>
		<path d="M219.1,271c0.6,1,1.1,2.1,1.7,3.1c0.3-1.1,0.6-2.3,0.9-3.4c0.1,0.5,0.4,1.4,0.5,1.9c-0.6,3-1.9,5.8-2.9,8.7&#xA;&#9;&#9;&#9;c2.6-1.6,4-4.4,4-7.4c0.4,0.4,1.3,1.2,1.7,1.5c0.4-1,0.8-2.1,1.2-3.2c0.2-0.5,0.5-1.4,0.7-1.9c2.4-1.1,2.5,2.1,3.2,3.6&#xA;&#9;&#9;&#9;c-0.1,0.5-0.4,1.5-0.5,2c2.1-0.9,0.1-3.6,0.4-5.2c0.6-0.1,1.8-0.2,2.4-0.2c-0.1,1.4-0.1,2.8-0.2,4.1c0.5-0.2,1.4-0.6,1.9-0.8&#xA;&#9;&#9;&#9;c0.2,5.3-1,11.3,2.5,15.9c-0.2,3.6-0.1,7.2-0.1,10.8l1.2-0.5c0.4,1.7,0.8,3.3,1.4,5c-0.2,0.3-0.6,0.9-0.9,1.2&#xA;&#9;&#9;&#9;c-1.6,2.7,0.9,5.8,0.9,8.7c-0.6-0.1-1.9-0.3-2.5-0.4c-0.5-2.9-1.1-5.7-1.7-8.6c0.4-1.4,0.8-2.8,1.3-4.1c-0.5,0.6-1.6,1.7-2.2,2.2&#xA;&#9;&#9;&#9;c0.1-2.7,0.6-5.4,0.9-8.1c-0.4,1-0.8,1.9-1,3c-1.4,1.5-2.1,3.4-1.4,5.4c-1.2,1.6-1.7,3.7-0.8,5.6c0.1-1.2,0.4-3.7,0.6-4.9&#xA;&#9;&#9;&#9;c1.4,3.2,0.5,6.8,0.7,10.2c-3.4,0.1-0.9-5.2-4.1-5.9c0.8-2.7,1.2-6.7-1.4-8.5c-0.9,3.5-1,7.1,0,10.5c-0.7,1.1-0.9,2.8-2.6,3&#xA;&#9;&#9;&#9;c-0.3-4.2,0.7-8.3,0.1-12.5c-2.3,3.5,1.5,9.2-2.6,11.8c1-3.1,1.6-6.7,0.2-9.8c-0.5,2.8-0.8,5.6-1.7,8.4c-0.3-0.8-1-2.4-1.3-3.3&#xA;&#9;&#9;&#9;c-0.5,1.3-1.1,2.7-1.7,3.9c-1.1-3-1.1-6.3-0.4-9.3c0.1-0.2,0.2-0.6,0.3-0.8c2.1-5.7,0.1-11.7-0.2-17.5c0.5-0.1,1.6-0.2,2.1-0.3&#xA;&#9;&#9;&#9;c-1,4.7-0.2,9.5,0.3,14.2c4.1-5.3,1.5-12.3,2.6-18.3c0.8,1.4,1.1,2.9,1.2,4.5c0.7-3.2,1.6-6.3,2.5-9.5l-0.9-0.4&#xA;&#9;&#9;&#9;c-0.7,1.5-1.4,3-2.1,4.5c-1.6,1.2-2.9,2.7-3.2,4.8c-0.6-1-1.1-1.9-1.6-2.9c-1.6,3.4-1.4,7.2-1.9,10.8c-0.8,0.8-1.6,1.7-2.4,2.5&#xA;&#9;&#9;&#9;c0.9-2.2,1.2-4.5,1.2-6.8c-2.4,2.8-3.8,6.6-2.7,10.2c0.3-0.6,0.8-1.9,1.1-2.5c0.2,0.1,0.5,0.2,0.7,0.2c-0.9,3.3-1.4,6.8-1.1,10.2&#xA;&#9;&#9;&#9;c-0.6-0.9-1.2-1.8-1.9-2.7c0.6-4.4-0.6-8.8-0.2-13.2c1.3-3.4,4.1-6,5.2-9.4c0.2-1.9,0.6-3.7,2.4-4.7c0.2-1.6,0.3-3.2,0.4-4.8&#xA;&#9;&#9;&#9;L219.1,271z M225.4,286.3c-2.2,4.7-3,9.9-2.3,15c0.5-0.1,1.6-0.2,2.1-0.3l0-1.4c1,0.1,2.1,0.3,3.1,0.4c1.1-1.7,1.1-3.6,0.9-5.5&#xA;&#9;&#9;&#9;c-0.5,0.7-1.5,2.1-2,2.8l-0.3-0.5c1.8-6.6,2.7-13.5,2-20.3C226.6,279.3,227,283.2,225.4,286.3z M230,293.2&#xA;&#9;&#9;&#9;c0.6,2.2,1.1,4.4,1.3,6.7c0.8-1.4,1.3-2.9,1.7-4.4c-0.6,0-1.6-0.1-2.2-0.1c0.8-6.1,2.8-12.4,0.8-18.5&#xA;&#9;&#9;&#9;C231.3,282.4,230.1,287.7,230,293.2z M233.1,294.7c2-2.3,0.9-5.5,0.5-8.1C232.6,289.2,233,292,233.1,294.7z M221.6,298.2&#xA;&#9;&#9;&#9;c-1.8,3-3.7,6.1-4.3,9.6c0.4,0,1.1-0.1,1.5-0.2C220.4,304.8,223.1,301.6,221.6,298.2z M230,301c-0.7,1.4-0.4,2.2,0.8,2.6&#xA;&#9;&#9;&#9;C231.5,302.2,231.2,301.3,230,301z"/>
	</g>
	<path d="M193.2,297.4"/>
</g>
<g>
	<path d="M227.3,174.8c0.4,0,1.2,0,1.6,0c-0.2,0.6-0.6,1.9-0.9,2.5c-0.3-0.4-0.9-1.2-1.2-1.5L227.3,174.8z"/>
	<path d="M181.3,262.3"/>
</g>
<g>
	<g>
		<path d="M214.2,175.7c2.1,1.7,2.7,5.1,0.1,6.6C212.6,180.3,212.8,177.8,214.2,175.7z M214.3,179.2"/>
	</g>
</g>
<g>
	<path d="M204.3,178.2"/>
</g>
<g>
	<path d="M206,178.2"/>
</g>
<g>
	<path d="M260.6,191.4c2.3-3.7,4.1-8.5,8.5-10.3c-1.8,5-6.5,8.2-8.8,12.9c0,0.4,0,1.1,0,1.5c0,0.4-0.1,1.3-0.1,1.7&#xA;&#9;&#9;c-1-0.6-1.9-1.3-2.9-1.9c1.7-0.4,2.4-2.3,3.3-3.5c-1.3,0.2-2.5,0.6-3.8,1c1.3-2.1,2.4-4.3,4.2-6&#xA;&#9;&#9;C260.7,188.3,259.9,189.9,260.6,191.4z"/>
</g>
<g>
	<path d="M294.4,181.3c1-0.3,2.9-1,3.9-1.3c-1.5,2.5-4,4.3-6,6.3c0.1-1.1,0.1-2.3,0.1-3.4C293.1,182.3,293.7,181.8,294.4,181.3z"/>
	<path d="M277.8,222.5c3-0.7,6.1-1.3,9.2-1.3C284,222.6,280.9,224.5,277.8,222.5z"/>
	<path d="M302.2,238.6c1.1-0.9,4.2-1.6,4.8-0.1C305.5,239.4,303.7,239.3,302.2,238.6z"/>
</g>
<g>
	<path d="M300.8,180.8c0,0.4,0,1.3,0,1.8c-0.2,0.5-0.5,1.4-0.7,1.9c-0.4,0.1-1.2,0.4-1.6,0.5l-0.6-0.3&#xA;&#9;&#9;C298.7,183.3,299.6,181.9,300.8,180.8z"/>
</g>
<g>
	<path d="M167.3,182.2"/>
</g>
<g>
	<path d="M173.3,181.8c1.1,1.6,2.2,3.1,3.2,4.8l-0.8,1c-0.6,0.8-1.3,1.5-1.9,2.3c-0.2-0.3-0.7-0.9-0.9-1.2c0-0.6,0.1-1.7,0.1-2.3&#xA;&#9;&#9;c-0.2-0.8-0.5-1.6-0.9-2.3l0.4-0.7C172.6,183,173.1,182.2,173.3,181.8z"/>
</g>
<g>
	<path d="M177.5,183.1c0.4-0.2,1.2-0.5,1.6-0.6c0.1,0.4,0.3,1.1,0.4,1.4c-0.5,1-1.3,1.7-2.4,1.9c-0.5-0.7-0.9-1.5-1.2-2.3&#xA;&#9;&#9;C176.3,183.4,177.1,183.2,177.5,183.1z"/>
</g>
<g>
	<path d="M202.2,183.3"/>
</g>
<g>
	<path d="M282.1,183.3l0.2,0.2c0.8,0.8,1.6,1.5,2.5,2.2c-0.3,0.2-0.7,0.7-1,0.9l0,0c-3.5,1.1-5.2,4.5-5.8,7.8c-2,3-3.4,7.6-7.6,7.8&#xA;&#9;&#9;l0.6-1.9c1.2-1.7,3.4-2.6,4.3-4.6c-1.2,0.7-2.2,1.6-3,2.7c-0.5-0.5-1.1-1-1.6-1.5C276,194.1,278.6,188.1,282.1,183.3z"/>
</g>
<g>
	<path d="M261,186.8c-0.4-1.6,1.1-2.7,2.5-2.7C263.2,185.4,262.5,187.1,261,186.8z"/>
</g>
<g>
	<path d="M179.7,185.1c1.5,1.3,2.8,2.9,3.8,4.6l0.8,1.5l-1.7-0.4c-1-1.4-1.9-2.7-2.7-4.2L179.7,185.1z"/>
</g>
<g>
	<path d="M219.2,186.3"/>
	<path d="M263,283.1c0.5-0.3,1.4-0.9,1.9-1.2c1.2,1.4,2.6,2.8,1.6,4.8C264.8,286,263.7,284.6,263,283.1z"/>
</g>
<g>
	<path d="M162.7,187c1.6,1.7,3.5,3.4,3.9,5.8c-0.8-0.6-2.3-1.7-3.1-2.3c-0.9-0.7-1.8-1.3-2.6-2c0.3,0.6,0.8,1.9,1.1,2.5&#xA;&#9;&#9;c-0.9-0.4-1.8-0.8-2.7-1.3c-0.1-0.4-0.4-1.1-0.6-1.5C160.1,187.9,161.4,187.5,162.7,187z"/>
</g>
<g>
	<path d="M275.4,187.1c0.4,0.2,1.2,0.7,1.6,0.9c-1,2-2.2,3.9-3.7,5.5c-0.7-0.3-2-0.9-2.7-1.2C272.6,190.9,274.1,189.1,275.4,187.1z"/>
</g>
<g>
	<path d="M290.3,191.2c1.3-1.4,2.4-3.5,4.2-4.3l1.8-0.4c-1.1,2-2.4,3.9-4.4,5.1C291.6,191.5,290.7,191.3,290.3,191.2z"/>
	<path d="M203.1,191.3c1.5,0.2,2.6,2.9,1.9,4.3C203.5,195.3,202.7,192.8,203.1,191.3z"/>
	<path d="M289.9,280.1c1.1,0,2.1,0.3,3,1c-0.2,0.4-0.6,1.2-0.8,1.6C290.7,283.2,288.8,281.3,289.9,280.1z"/>
</g>
<g>
	<path d="M186.4,189.1c1.1,0.2,2.3,0.3,3.4,0.5c1.9-0.6,3.8-1,5.7-0.2c-0.9,0.2-2.7,0.7-3.6,0.9c1.4,0.5,2.8,0.9,4.2,1.5&#xA;&#9;&#9;c-0.1,0.3-0.3,1-0.4,1.3c-0.9-1.1-2.8-1.8-3.8-0.6c-0.4,0.4-1.3,1.2-1.7,1.6c-0.3-0.5-1-1.6-1.3-2.1c0.7,0,2-0.1,2.7-0.1&#xA;&#9;&#9;C189.8,191,188.1,190,186.4,189.1z"/>
</g>
<g>
	<path d="M182.5,190.8l1.7,0.4c0.1,0.2,0.4,0.4,0.5,0.6c2.1,3,5.9,5.1,9.4,3.2c-0.2,0.4-0.5,1.1-0.6,1.5c0.5,0.4,1.4,1.1,1.9,1.5&#xA;&#9;&#9;c-0.8,0.1-2.3,0.2-3,0.2l-0.6-0.3l-0.3-0.1l-0.4-0.1c-3-0.9-5.8-2.3-8-4.4C182.9,192.6,182.7,191.4,182.5,190.8z"/>
</g>
<g>
	<path d="M184.8,191.8c1.8,0.8,3.6,1.6,5.3,2.4c0.4-0.4,1.3-1.2,1.7-1.6c1.1,0.7,2.3,1,3.6,1.1c0.7,0.8,0.9,1.9,1.1,3&#xA;&#9;&#9;c0.1,0.3,0.2,0.7,0.2,1c0.7,1,1.4,2,2.1,3c-0.1,0.5-0.4,1.5-0.6,2c-1.9-1.6-3.8-3.3-6-4.5c0.8,0,2.3-0.1,3-0.2&#xA;&#9;&#9;c-0.5-0.4-1.4-1.1-1.9-1.5c0.2-0.4,0.5-1.1,0.6-1.5C190.6,196.9,186.8,194.8,184.8,191.8z"/>
	<path d="M291.3,195.3"/>
	<path d="M173.3,204.2"/>
</g>
<g>
	<path d="M191.9,192.6c1-1.3,3-0.6,3.8,0.6l-0.2,0.5C194.2,193.6,193,193.3,191.9,192.6z"/>
</g>
<g>
	<path d="M164,193.9c1.4-0.3,2.7,0.7,3.3,1.9C165.9,196.3,164,195.5,164,193.9z"/>
	<path d="M186.4,252c1.9-1.1,1.8,1.6,0.2,1.8C184.7,254.9,184.8,252.2,186.4,252z"/>
</g>
<g>
	<path d="M309.6,194.2c0.7,0.1,2,0.4,2.6,0.6c0.5,0.7,1,1.5,1.6,2.2c-0.4,0.1-1.1,0.3-1.4,0.4c-0.5,0.1-1.4,0.2-1.9,0.2l-0.5-0.6&#xA;&#9;&#9;C309.9,196.4,309.7,194.9,309.6,194.2z"/>
	<path d="M153.9,230.1c1.5,0,2.9,0,4.4,0c0.3,0,1,0,1.3,0c0.4,0.5,1.2,1.6,1.6,2.1c-1.3-0.1-2.5-0.2-3.7-0.4l-0.6-0.2&#xA;&#9;&#9;c-1.2-0.3-2.5-0.7-3.8-0.9L153.9,230.1z"/>
	<g>
		<path d="M186.3,237.8c2.5,0.3,5.1,0.4,7.6,0.8c2.1,2.8-0.8,4.1-2.9,5.2c1.5-0.4,2.9-0.8,4.4-1.2c-0.1,0.6-0.4,1.6-0.6,2.2&#xA;&#9;&#9;&#9;l-0.6,0.1c-3.1,0-5.7,1.5-8.1,3.3c-1.8,1.3-3.4,2.9-4.9,4.6c-0.3-0.4-0.8-1.1-1-1.5c-1.5,1.1-2.9,2.2-4.1,3.6&#xA;&#9;&#9;&#9;c-0.5-0.1-1.4-0.4-1.9-0.5c-1.2,1-2.4,2.1-3.6,3.1c0.4,0.3,1.2,0.8,1.6,1c-2.4,1.1-4.7,3.7-7.6,2.7c0.7-0.5,2-1.5,2.7-1.9&#xA;&#9;&#9;&#9;c1.3-0.3,1.9-1.1,1.8-2.3c-1.6,0.1-2.1,0.8-1.8,2.3l-1-1c-1.1,1.5-2.3,3-3.8,4.2c0.2-1-0.2-2.3,0.8-2.9c2.7-2.3,5.9-3.7,8.7-5.7&#xA;&#9;&#9;&#9;c5.1-3.9,10.4-7.5,15.9-10.7c-3.6,1-7.6,1.9-10.2,4.8c-2.2,2.2-4.6,4.3-7.7,4.9c2.5-2.2,5.9-3.5,7.3-6.8c-2.9,1.3-5.5,3.2-8,5.1&#xA;&#9;&#9;&#9;h-1.6c0.6-0.7,1.8-2,2.4-2.7c-4,0.6-7.8,2.1-11.1,4.3c-1.4,0.6-2.8,1.3-4.1,2l-1.2,0.7c-0.5-0.6-1-1.1-1.5-1.7&#xA;&#9;&#9;&#9;c3.1-0.8,6.3-1.5,9-3.4c4.8-3.1,11.3-2.2,15.5-6.3c-0.1-0.4-0.4-1.2-0.6-1.6c2.1-0.5,4-1.5,5.9-2.4c1.3,0.4,2.6,0.8,3.9,1.1&#xA;&#9;&#9;&#9;c1,0.3,2.1,0.6,3.1,1c-1-0.6-1.9-1.2-2.8-1.8c0.9-0.1,2.7-0.3,3.7-0.4c-0.9-0.1-2.6-0.4-3.5-0.5L186.3,237.8z M180.4,242.2&#xA;&#9;&#9;&#9;c-1-0.2-3.4,1.4-1.7,2.1c1.2-0.2,2.4-0.6,3.5-1.3C183.5,242.1,180.9,242,180.4,242.2z"/>
	</g>
	<path d="M156.5,247.4c2.2-0.6,4.9-2.7,7-1c-4.3,0.6-8.1,2.9-12.2,4.2C152,248.5,154.8,248.4,156.5,247.4z"/>
</g>
<g>
	<path d="M301.4,200.6c1.7-2.1,4.1-3.5,6.3-5.1c0.6,0.4,1.7,1.1,2.3,1.5l0.5,0.6c0.5-0.1,1.4-0.2,1.9-0.2c-0.8,0.9-1.8,1.4-3,1.6&#xA;&#9;&#9;c-0.4,0-1.2,0.1-1.6,0.2C305.5,199.4,303.8,201.7,301.4,200.6z"/>
</g>
<g>
	<path d="M185.2,198.2"/>
	<path d="M204.7,295.3c0.6-2.6,0.5-5.7,2.5-7.6C207.8,290.4,207.6,293.7,204.7,295.3z"/>
</g>
<g>
	<path d="M168.5,199.7c0,0,0.1,0,0.1,0C168.6,199.7,168.5,199.7,168.5,199.7z"/>
	<path d="M297.1,268.1c-2.3-0.6,1-2.1,1.9-1.1l0.1,0.6C298.6,267.7,297.6,268,297.1,268.1z"/>
</g>
<g>
	<path d="M159.4,206.8c0.1-0.2,0.2-0.6,0.3-0.8c1.4-0.3,3.8-0.5,4.5,1.1l-0.3,0.5C162.4,208.3,160.8,207.5,159.4,206.8z"/>
	<path d="M283.5,252.1c0.6,0,1.9-0.1,2.5-0.2l0.2,0.6c-0.7,0-2.2,0.1-3,0.2L283.5,252.1z"/>
	<path d="M202.2,303.5"/>
</g>
<g>
	<path d="M274.3,208.3"/>
</g>
<g>
	<path d="M277.3,209.1"/>
</g>
<g>
	<path d="M158.2,212.9c1.8-1,3.7-1.8,5.6-2.4c-0.2,0.6-0.5,1.8-0.7,2.4c0.9-0.1,2.7-0.2,3.6-0.2c-0.9,0.7-1.9,1.4-2.8,2.1&#xA;&#9;&#9;C162,214.3,160,213.9,158.2,212.9z"/>
</g>
<g>
	<path d="M294.2,210.9l1-0.5l0.8,0.4c-0.5,0.2-1.4,0.7-1.9,0.9L294.2,210.9z"/>
</g>
<g>
	<g>
		<path d="M310.7,214.8c1.8-0.6,3.6-1.5,5.2-2.5l-0.4,0.8c-0.5,0.9-0.9,1.8-1.2,2.8c-1.3,0.6-2.7,1.1-4.1,1.5&#xA;&#9;&#9;&#9;c-0.2-0.2-0.5-0.7-0.7-1c-1.6,0.8-3.2,1.6-4.8,2.4c-1.1,0.5-2.3,1-3.5,1.5c-0.4,0.1-1.2,0.3-1.6,0.4c0.5,0.2,1.7,0.7,2.2,1&#xA;&#9;&#9;&#9;c-1.6,0.5-3.3,1.1-4.9,1.6c0.6-0.5,1.7-1.4,2.3-1.8c-0.9-0.3-1.8-0.7-2.7-1c-1.2,1-2.6,1.8-4,2.4c-1.6,0.3-3.3,0.5-4.9,0.8&#xA;&#9;&#9;&#9;c-0.5,0.1-1.4,0.3-1.8,0.4c-0.4,0.1-1.3,0.4-1.7,0.5c-3,0.9-6,1.5-9.2,1.7c0.4-0.4,1.2-1.3,1.5-1.8c-1.9,0.1-1.3-2-1.6-3.3&#xA;&#9;&#9;&#9;c6.5-0.9,13-2.3,19.1-4.9l-0.7,1.4l-1.4,0.8l0.2,0.7c3.2-1.7,6.5-3.4,9.6-5.2l-0.3,2.2c0.9-0.4,1.8-0.8,2.7-1.2l0.3,0.2&#xA;&#9;&#9;&#9;c0.4,0.2,1.3,0.7,1.7,0.9C307.7,215.7,309.2,215.3,310.7,214.8z M291.5,220.1c0.3,1.3,1,1.5,2.2,0.6&#xA;&#9;&#9;&#9;C293.4,219.4,292.7,219.2,291.5,220.1z M277.8,222.5c3.1,2.1,6.3,0.1,9.2-1.3C283.9,221.1,280.8,221.8,277.8,222.5z"/>
	</g>
	<path d="M286,213.4c0.7-0.1,2.1-0.3,2.8-0.4c-0.2,1.2,0.2,2.3,1.2,3.2c-4.3,1.3-8.6,2.6-13,3.5c0.9-2.7,4.7-1.8,6.8-2.9&#xA;&#9;&#9;c0.2-1.3,0.4-2.6,1.2-3.8c0.4,0.4,1.1,1.2,1.4,1.6C286.4,214.3,286.1,213.7,286,213.4z"/>
	<path d="M157.5,222.8c3.3-0.9,6.8-2.3,10.2-1.1c-0.9,0.2-2.8,0.6-3.7,0.8c2.7,1.4,5.7-0.1,8.3,0.5c0,0.5,0.1,1.5,0.2,2&#xA;&#9;&#9;c-3.1,0.1-6.1-0.4-9.2-0.2c-0.4-0.2-1.2-0.6-1.5-0.7C160.4,223.3,159,222.9,157.5,222.8z"/>
	<path d="M239,306.2c1.5,0.2,1.5,0.8,0.3,1.7C239.2,307.5,239.1,306.6,239,306.2z"/>
</g>
<g>
	<path d="M307.3,213.9c1.8-0.4,3.7-0.8,5.5-1.2c-0.5,0.5-1.6,1.6-2.1,2.1c-1.5,0.5-3,0.9-4.5,1.2c-0.4-0.2-1.3-0.7-1.7-0.9&#xA;&#9;&#9;C305.2,214.8,306.6,214.2,307.3,213.9z"/>
</g>
<g>
	<path d="M315.5,213.1c0.7-0.3,4-0.4,2.6,0.9c-1.2,0.6-2.4,2-3.8,1.8C314.6,214.9,315,213.9,315.5,213.1z"/>
</g>
<g>
	<path d="M158.1,219.1c1.2,0,2.4,0,3.5,0.2c3.1,0.9,6.3,0.6,9.4-0.2c-0.7,0.8-1.4,1.5-2.1,2.3c-0.3,0.1-1,0.2-1.3,0.3&#xA;&#9;&#9;c-3.4-1.2-6.9,0.1-10.2,1.1c-2.7,0.7-5.5,0.2-8.2,0.1c0-0.7,0-2-0.1-2.6l0.2,0.1c3.1,0.9,6.3,0.8,9.5,0.6c-0.1-0.2-0.3-0.7-0.4-0.9&#xA;&#9;&#9;L158.1,219.1z"/>
	<path d="M296.6,220.4c0.9,0.3,1.8,0.7,2.7,1c-0.6,0.5-1.7,1.4-2.3,1.8c-0.3,0.2-0.8,0.5-1.1,0.6c-0.8-1.4-1.4-1.3-1.7,0.1l-0.2,1.3&#xA;&#9;&#9;l-0.9-0.5c-0.1-0.5-0.4-1.5-0.5-2C294.1,222.2,295.4,221.4,296.6,220.4z"/>
</g>
<g>
	<path d="M275.2,219.1"/>
</g>
<g>
	<path d="M287.7,223.6c1.6-0.3,3.3-0.5,4.9-0.8c0.1,0.5,0.3,1.5,0.5,2c-1.4,0.5-2.7,0.9-4.1,1.1C288.6,225.4,288,224.2,287.7,223.6z"/>
</g>
<g>
	<path d="M294.2,224c0.4-1.4,1-1.5,1.7-0.1C295.5,223.9,294.6,224,294.2,224z"/>
</g>
<g>
	<path d="M285.9,224c0.5-0.1,1.4-0.3,1.8-0.4c0.3,0.6,0.9,1.7,1.2,2.3l-0.7,0.2C287,225.9,286.2,225.2,285.9,224z"/>
	<path d="M279.6,248c2.6,0.5,5.2,0.9,7.8,1.3c-1.1,0.3-2.2,0.7-3.2,1c-0.2,0.4-0.5,1.3-0.7,1.7l-0.2,0.6c0.7,0,2.2-0.1,3-0.2&#xA;&#9;&#9;l0.6,1.7c-1.5-0.1-2.9-0.3-4.4-0.4c-1.3-1.5-2.6-2.9-4.6-3.3c0.9-0.3,1.9-0.6,2.8-0.9c-0.2-0.3-0.6-1-0.8-1.3L279.6,248z"/>
</g>
<g>
	<path d="M311.4,226.1c2.9-0.2,5.7-0.3,8.6-0.3l0,1.1c-2.9,0-5.8,0.2-8.7,0.6L311.4,226.1z"/>
</g>
<g>
	<path d="M148.7,226.7c3,0.8,6,1.2,9,1.9l0.6,1.5c-1.5,0-2.9,0-4.4,0c-1.7,0-3.4-0.1-5.1,0c0.3-0.4,0.8-1.2,1.1-1.6&#xA;&#9;&#9;C149.6,228,149,227.1,148.7,226.7z"/>
</g>
<g>
	<path d="M305.7,229.9c0.3-0.3,1-0.7,1.3-1c4.1-0.6,8.3,0.1,12.5,0.2l-0.4,1.5l-1.8-0.4c-1-0.3-2.1-0.4-3.1-0.2&#xA;&#9;&#9;c-1.5,0.2-2.9,0.9-4.2,1.4C308.5,231,307.1,230.5,305.7,229.9z"/>
	<path d="M239.7,309.6c0.7-1.1,1.4-2.2,2.1-3.2c0.2,2.9,0.6,6-0.6,8.8C240.6,313.4,240,311.5,239.7,309.6z"/>
</g>
<g>
	<path d="M288.8,230.9c0.4-1.4,2.9-1.1,4-0.6C292.4,231.6,289.9,231.3,288.8,230.9z"/>
	<path d="M304.9,256.7c0.5-1.1,4-1.2,4.3,0.1C307.8,257.3,306.3,257.3,304.9,256.7z"/>
</g>
<g>
	<path d="M281.2,235.9c0.4-1.3,1.3-1.6,2.6-1.1c0.2,0.3,0.6,0.9,0.8,1.2C283.5,236.2,282.4,236.1,281.2,235.9z"/>
</g>
<g>
	<path d="M317.4,236.2c0.1-0.4,0.3-1.1,0.4-1.5C320.5,233.9,319.5,237.4,317.4,236.2z"/>
</g>
<g>
	<path d="M184.3,239.2"/>
</g>
<g>
	<path d="M280.5,239.9c3.3,0.1,6.7-0.1,10,0.2c1.2,0.3,2.5,0.6,3.7,0.8c8.3,0.1,16.7-0.1,25,0.1l0,1.4c-8.9,0.1-17.8-0.7-26.6-0.4&#xA;&#9;&#9;c-4.8-2.1-10-1-14.9,0C278.6,241.3,279.5,240.6,280.5,239.9z"/>
</g>
<g>
	<path d="M161.7,243.1c2.2-0.5,4.2-1.8,6.1-2.9c0.2,1.7-0.5,2.9-2.1,3.5c-0.7,0.1-2.2,0.3-2.9,0.3&#xA;&#9;&#9;C162.6,243.9,162,243.4,161.7,243.1z"/>
	<path d="M254.3,272.7c-0.6-0.9-0.9-3.4,0.5-3.5C255.4,270,255.6,272.5,254.3,272.7z"/>
	<path d="M255.3,277.3c1.4,0.5,1,3.3,0.4,4.4C254.2,281.3,254.6,278.5,255.3,277.3z"/>
</g>
<g>
	<path d="M172.2,242.1c-2-0.6,0.2-2.1,1.3-1.7c0.3,0.4,0.7,1.1,1,1.4C173.9,241.9,172.8,242,172.2,242.1z"/>
</g>
<g>
	<path d="M168.5,243c2.1-0.2,4.1-0.2,6.2,0l1.1,0.7c-3.5,1.5-7.2,2.7-11,2.6c-0.6-0.5-1.8-1.6-2.4-2.1l0.5,0&#xA;&#9;&#9;c0.7-0.1,2.2-0.3,2.9-0.3C166.5,243.6,167.8,243.2,168.5,243z"/>
</g>
<g>
	<path d="M305.4,243.2c4.2-0.4,8.4-0.4,12.6-0.2c0.4,0.3,1.1,0.8,1.5,1c-3.3-0.1-6.7-0.2-10,0.2&#xA;&#9;&#9;C308.1,243.9,306.7,243.5,305.4,243.2z"/>
</g>
<g>
	<path d="M186.1,248.2c2.3-1.8,5-3.3,8.1-3.3l0.2,1.2c-0.1,0.7-0.2,1.3-0.2,2c-1.6-0.5-3,0.8-3.1,2.3c-0.3,0.2-0.9,0.6-1.2,0.7&#xA;&#9;&#9;c-0.4-0.3-1.2-0.7-1.6-1c0.5-0.5,1.4-1.4,1.9-1.8C189.1,248.3,187.1,248.2,186.1,248.2z"/>
	<path d="M268.1,266.8c0.4,0.3,1.2,1,1.6,1.3c0.6,0.2,1.7,0.5,2.3,0.7l0.6-0.1c0.9,0.2,1.6,0.8,2,1.7c-2.8,1.4-0.9,4-0.6,6.3&#xA;&#9;&#9;c-0.5,0.2-1.5,0.6-2,0.8c0.3,0.2,0.9,0.5,1.2,0.6c0.1,0.4,0.4,1.1,0.5,1.5c-0.6,0.4-1.9,1.1-2.5,1.4c-1.1-1.3-1.1-2.9-0.6-4.5&#xA;&#9;&#9;c0.1-0.5,0.4-1.5,0.6-2c0.1-0.3,0.2-0.9,0.3-1.1c-1-1.1-2.1-2.1-3.2-3C268.3,269.4,268.2,267.7,268.1,266.8z"/>
</g>
<g>
	<path d="M275.5,250.4c-0.4-2.4,2.4-3.1,4.1-2.3l0.2,0.3C278.4,249.1,277,249.9,275.5,250.4z"/>
</g>
<g>
	<path d="M307.9,250.4c3,0.6,7.6-1.2,9.6,1.5c-3,0.1-6,0.3-9,0L307.9,250.4z"/>
</g>
<g>
	<path d="M174.2,254.4c0.5,0.1,1.4,0.4,1.9,0.5c-1.1,1.4-2.3,2.8-3.9,3.6c-0.4-0.3-1.2-0.8-1.6-1&#xA;&#9;&#9;C171.9,256.4,173.1,255.4,174.2,254.4z"/>
	<path d="M225.4,286.3c1.7-3.1,1.2-7,3.5-9.7c0.6,6.9-0.3,13.7-2,20.3c-1.4-2.2-0.9-4.9-1.4-7.4c-0.6,3.3-0.5,6.7-0.4,10.1l0,1.4&#xA;&#9;&#9;c-0.5,0.1-1.5,0.2-2.1,0.3C222.4,296.2,223.2,290.9,225.4,286.3z"/>
</g>
<g>
	<path d="M160.3,255.6c0.1,0,0.3-0.1,0.4-0.2C160.6,255.5,160.4,255.6,160.3,255.6z"/>
	<path d="M188.2,279.3"/>
	<path d="M240.3,302.4c0.4-0.3,1.2-0.8,1.6-1.1c1.4,3.9,1.1,8,1.2,12c0.7-1.3,1.3-2.6,2-3.9c0.2,0.7,0.5,2,0.7,2.7&#xA;&#9;&#9;c-0.9,0.8-1.8,1.6-2.7,2.5c-0.5,0.2-1.4,0.6-1.9,0.7c1.2-2.8,0.8-5.9,0.6-8.8c-0.7,1.1-1.4,2.1-2.1,3.2c-0.1-0.4-0.3-1.3-0.5-1.7&#xA;&#9;&#9;c1.3-0.9,1.2-1.5-0.3-1.7l-0.8,0c0.2-0.3,0.6-0.9,0.9-1.2C239.7,304.3,240.1,303.4,240.3,302.4z"/>
</g>
<g>
	<path d="M167.4,259.3c-0.4-1.5,0.2-2.2,1.8-2.3C169.3,258.2,168.7,258.9,167.4,259.3z"/>
</g>
<g>
	<path d="M157.2,262c0.5-0.4,1.6-1.2,2.1-1.6c0.4,0.1,1.2,0.2,1.6,0.3C160.5,262.2,158.4,262.1,157.2,262z"/>
</g>
<g>
	<path d="M297.6,263.2"/>
</g>
<g>
	<path d="M250.3,268c0.1-0.3,0.2-1,0.3-1.4c0.4,3.4,1.3,6.8,1.9,10.1c0,2.7-0.4,5.4-1.4,7.9c-0.2-3.5-0.1-7-0.3-10.5&#xA;&#9;&#9;c-0.5,0.9-1,1.9-1.4,2.8c0.2-2.7-0.4-5.3-1.3-7.9c0.5,0.2,1.4,0.5,1.9,0.7C250,269.4,250.2,268.4,250.3,268z"/>
</g>
<g>
	<path d="M269.7,268.1c0.3-1.8,2.7-0.8,2.3,0.7C271.4,268.6,270.3,268.2,269.7,268.1z"/>
	<path d="M243.1,314.5c0.9-0.9,1.7-1.7,2.7-2.5C247.5,313.6,244.6,316.2,243.1,314.5z"/>
</g>
<g>
	<path d="M219.1,271c-1.7-1.6,0.2-3,1.9-3.2c0.2,0.6,0.5,1.8,0.7,2.4l0.1,0.4c-0.3,1.1-0.6,2.3-0.9,3.4&#xA;&#9;&#9;C220.2,273.1,219.6,272.1,219.1,271z"/>
</g>
<g>
	<path d="M221.6,270.3c0.3-0.4,1-1.3,1.3-1.7c0.1,1,0.2,3,0.3,4c0.3-0.7,0.9-2.2,1.2-3c0.8,0.8,1.4,1.7,1.7,2.8&#xA;&#9;&#9;c-0.4,1.1-0.8,2.1-1.2,3.2c-0.4-0.4-1.3-1.2-1.7-1.5c-0.3-0.3-0.8-1-1-1.3c-0.1-0.5-0.4-1.4-0.5-1.9L221.6,270.3z"/>
	<path d="M199.6,274.4c0.4-0.6,0.8-1.1,1.2-1.7c0.1,0.7,0.4,2.1,0.6,2.8c0,1,0,2,0,3c-0.2,1.1-0.3,2.3-0.5,3.4&#xA;&#9;&#9;c-1.1,2.1-2.2,4.3-2.6,6.7c-0.3,0.7-0.7,2.2-1,3c-0.3-1.6-0.6-3.2-0.9-4.8l-0.1-0.4c0.7-1.9,1.5-3.8,2.3-5.6l0.9,0.1l0.5-0.8&#xA;&#9;&#9;c-0.2-0.3-0.7-0.8-1-1.1C199.5,277.4,199.6,275.9,199.6,274.4z"/>
</g>
<g>
	<path d="M196.9,274.4c2.1-1.4,4-4.2,6.9-3.7c-0.8,1.6-1.7,3.2-2.4,4.8c-0.1-0.7-0.4-2.1-0.6-2.8c-0.4,0.6-0.8,1.1-1.2,1.7&#xA;&#9;&#9;c-0.4,0.5-1.2,1.6-1.6,2.1C197.7,275.9,197.2,274.9,196.9,274.4z"/>
	<path d="M225.1,299.6c-0.1-3.4-0.3-6.8,0.4-10.1c0.5,2.4,0,5.2,1.4,7.4l0.3,0.5c0.5-0.7,1.5-2.1,2-2.8c0.2,1.9,0.2,3.9-0.9,5.5&#xA;&#9;&#9;C227.1,299.9,226.1,299.8,225.1,299.6z"/>
</g>
<g>
	<path d="M262.3,273c0.4-0.3,1.2-0.9,1.6-1.2c0.1,0.4,0.4,1.3,0.5,1.7c0.1,1.4,0.2,2.7,0.4,4.1c-0.3,0.8-0.8,2.3-1.1,3.1&#xA;&#9;&#9;c-0.2-0.5-0.6-1.6-0.8-2.1C262.8,276.7,262.8,274.8,262.3,273z"/>
</g>
<g>
	<path d="M268.2,272.3c1.5-0.5,2.1,1.5,3.1,2.2c-0.1,0.5-0.4,1.5-0.6,2c-1.2-0.8-2.6-1.4-3.1-2.8&#xA;&#9;&#9;C267.7,273.3,268.1,272.6,268.2,272.3z"/>
</g>
<g>
	<path d="M175.2,273.2"/>
</g>
<g>
	<path d="M243,279.3c0-2.2-0.2-4.5,0.9-6.5c1.5,2,2.2,4.4,2.8,6.8l-1.6-0.1C244.5,279.5,243.5,279.4,243,279.3z"/>
</g>
<g>
	<path d="M194.2,278.7c-0.7-1.2,0.1-3.7,1.6-3.6C196.3,276.3,195.6,278.8,194.2,278.7z"/>
</g>
<g>
	<path d="M199.1,279c0.2,0.3,0.7,0.8,1,1.1l-0.5,0.8l-0.9-0.1C198.9,280.3,199.1,279.4,199.1,279z"/>
</g>
<g>
	<path d="M211.9,282.8c1.1-1.3,2.3-2.6,3.6-3.7c0.2,0.5,0.5,1.6,0.6,2.2c-1.1,3.4-3.9,6-5.2,9.4c-1,0-2-0.1-3.1-0.1&#xA;&#9;&#9;c0.2-2.5,0.3-5,0.9-7.4c0.1,1.9-0.8,4.6,1.3,5.6l0.3,0.2c0-0.2-0.1-0.5-0.1-0.7c0.1-0.4,0.3-1.2,0.4-1.6c0.3-0.4,1-1.2,1.4-1.6&#xA;&#9;&#9;C212,284.5,212,283.3,211.9,282.8z"/>
</g>
<g>
	<path d="M194,284c-0.6-1.5-0.3-3,0.4-4.4c0.5,1.7,1,3.4,1.6,5.2c0.1,0.4,0.3,1.2,0.5,1.6l0.1,0.4c-0.7,1.6-1.5,3.1-2.3,4.7&#xA;&#9;&#9;C194.3,288.9,194.7,286.4,194,284z"/>
</g>
<g>
	<path d="M216.3,292.6c0.8,3.3,0.7,6.7,1.3,10.1c-0.1,0.2-0.2,0.6-0.3,0.8c-0.5,0.6-1.1,1.3-1.6,1.9c-1,1.4-1.9,2.9-2.8,4.4&#xA;&#9;&#9;c-1.2-1.8-2.1-3.8-1.7-5.9c0.6,0.9,1.2,1.8,1.9,2.7c2.2-2.7,3.4-6.1,2.9-9.7c-0.5-0.1-1.4-0.4-1.8-0.6c-0.2-0.1-0.5-0.2-0.7-0.2&#xA;&#9;&#9;c0.1-0.2,0.3-0.7,0.4-0.9C214.7,294.3,215.5,293.4,216.3,292.6z"/>
</g>
<g>
	<path d="M252.7,299.2c0.2-1.9,0.3-3.8,1.1-5.5c0.3,2.8,0.7,5.7,0.9,8.5C254.1,301.2,253.4,300.2,252.7,299.2z"/>
</g>
<g>
	<path d="M205.1,295.9c1.8,0,1.8,1.9,2.1,3.2l-0.9-0.3c-1.7-1.5-2.4,1.9-0.5,2c-0.8,1.5,0,4.6-2.7,4.2c0.1-0.6,0.2-1.8,0.3-2.4&#xA;&#9;&#9;C203.7,300.3,203.8,297.9,205.1,295.9z"/>
</g>
<g>
	<path d="M205.8,300.7c-1.9,0-1.2-3.4,0.5-2C206.2,299.3,205.9,300.2,205.8,300.7z"/>
</g>
<g>
	<path d="M245.3,299.3c1.3,0.3,1.5,1.1,0.6,2.3C244.6,301.3,244.4,300.5,245.3,299.3z"/>
</g>
<g>
	<path d="M230,301c1.2,0.4,1.5,1.2,0.8,2.6C229.6,303.2,229.3,302.3,230,301z"/>
</g>
</svg>